<?xml version="1.0" encoding="utf-8"?>
<svg xmlns="http://www.w3.org/2000/svg" xmlns:xlink="http://www.w3.org/1999/xlink" width="600" height="400" viewBox="0 0 2400 1600">
<defs>
  <clipPath id="clip410">
    <rect x="0" y="0" width="2400" height="1600"/>
  </clipPath>
</defs>
<path clip-path="url(#clip410)" d="
M0 1600 L2400 1600 L2400 0 L0 0  Z
  " fill="#ffffff" fill-rule="evenodd" fill-opacity="1"/>
<defs>
  <clipPath id="clip411">
    <rect x="480" y="0" width="1681" height="1600"/>
  </clipPath>
</defs>
<path clip-path="url(#clip410)" d="
M194.422 1486.45 L2352.76 1486.45 L2352.76 47.2441 L194.422 47.2441  Z
  " fill="#ffffff" fill-rule="evenodd" fill-opacity="1"/>
<defs>
  <clipPath id="clip412">
    <rect x="194" y="47" width="2159" height="1440"/>
  </clipPath>
</defs>
<polyline clip-path="url(#clip412)" style="stroke:#000000; stroke-linecap:butt; stroke-linejoin:round; stroke-width:2; stroke-opacity:0.1; fill:none" points="
  253.471,1486.45 253.471,47.2441 
  "/>
<polyline clip-path="url(#clip412)" style="stroke:#000000; stroke-linecap:butt; stroke-linejoin:round; stroke-width:2; stroke-opacity:0.1; fill:none" points="
  762.512,1486.45 762.512,47.2441 
  "/>
<polyline clip-path="url(#clip412)" style="stroke:#000000; stroke-linecap:butt; stroke-linejoin:round; stroke-width:2; stroke-opacity:0.1; fill:none" points="
  1271.55,1486.45 1271.55,47.2441 
  "/>
<polyline clip-path="url(#clip412)" style="stroke:#000000; stroke-linecap:butt; stroke-linejoin:round; stroke-width:2; stroke-opacity:0.1; fill:none" points="
  1780.59,1486.45 1780.59,47.2441 
  "/>
<polyline clip-path="url(#clip412)" style="stroke:#000000; stroke-linecap:butt; stroke-linejoin:round; stroke-width:2; stroke-opacity:0.1; fill:none" points="
  2289.63,1486.45 2289.63,47.2441 
  "/>
<polyline clip-path="url(#clip410)" style="stroke:#000000; stroke-linecap:butt; stroke-linejoin:round; stroke-width:4; stroke-opacity:1; fill:none" points="
  194.422,1486.45 2352.76,1486.45 
  "/>
<polyline clip-path="url(#clip410)" style="stroke:#000000; stroke-linecap:butt; stroke-linejoin:round; stroke-width:4; stroke-opacity:1; fill:none" points="
  253.471,1486.45 253.471,1467.55 
  "/>
<polyline clip-path="url(#clip410)" style="stroke:#000000; stroke-linecap:butt; stroke-linejoin:round; stroke-width:4; stroke-opacity:1; fill:none" points="
  762.512,1486.45 762.512,1467.55 
  "/>
<polyline clip-path="url(#clip410)" style="stroke:#000000; stroke-linecap:butt; stroke-linejoin:round; stroke-width:4; stroke-opacity:1; fill:none" points="
  1271.55,1486.45 1271.55,1467.55 
  "/>
<polyline clip-path="url(#clip410)" style="stroke:#000000; stroke-linecap:butt; stroke-linejoin:round; stroke-width:4; stroke-opacity:1; fill:none" points="
  1780.59,1486.45 1780.59,1467.55 
  "/>
<polyline clip-path="url(#clip410)" style="stroke:#000000; stroke-linecap:butt; stroke-linejoin:round; stroke-width:4; stroke-opacity:1; fill:none" points="
  2289.63,1486.45 2289.63,1467.55 
  "/>
<path clip-path="url(#clip410)" d="M253.471 1517.37 Q249.86 1517.37 248.031 1520.93 Q246.226 1524.47 246.226 1531.6 Q246.226 1538.71 248.031 1542.27 Q249.86 1545.82 253.471 1545.82 Q257.105 1545.82 258.911 1542.27 Q260.739 1538.71 260.739 1531.6 Q260.739 1524.47 258.911 1520.93 Q257.105 1517.37 253.471 1517.37 M253.471 1513.66 Q259.281 1513.66 262.337 1518.27 Q265.415 1522.85 265.415 1531.6 Q265.415 1540.33 262.337 1544.94 Q259.281 1549.52 253.471 1549.52 Q247.661 1549.52 244.582 1544.94 Q241.526 1540.33 241.526 1531.6 Q241.526 1522.85 244.582 1518.27 Q247.661 1513.66 253.471 1513.66 Z" fill="#000000" fill-rule="evenodd" fill-opacity="1" /><path clip-path="url(#clip410)" d="M726.204 1544.91 L742.524 1544.91 L742.524 1548.85 L720.579 1548.85 L720.579 1544.91 Q723.241 1542.16 727.825 1537.53 Q732.431 1532.88 733.612 1531.53 Q735.857 1529.01 736.737 1527.27 Q737.639 1525.51 737.639 1523.82 Q737.639 1521.07 735.695 1519.33 Q733.774 1517.6 730.672 1517.6 Q728.473 1517.6 726.019 1518.36 Q723.588 1519.13 720.811 1520.68 L720.811 1515.95 Q723.635 1514.82 726.088 1514.24 Q728.542 1513.66 730.579 1513.66 Q735.949 1513.66 739.144 1516.35 Q742.338 1519.03 742.338 1523.52 Q742.338 1525.65 741.528 1527.57 Q740.741 1529.47 738.635 1532.07 Q738.056 1532.74 734.954 1535.95 Q731.852 1539.15 726.204 1544.91 Z" fill="#000000" fill-rule="evenodd" fill-opacity="1" /><path clip-path="url(#clip410)" d="M752.385 1514.29 L770.741 1514.29 L770.741 1518.22 L756.667 1518.22 L756.667 1526.7 Q757.685 1526.35 758.704 1526.19 Q759.723 1526 760.741 1526 Q766.528 1526 769.908 1529.17 Q773.287 1532.34 773.287 1537.76 Q773.287 1543.34 769.815 1546.44 Q766.343 1549.52 760.023 1549.52 Q757.848 1549.52 755.579 1549.15 Q753.334 1548.78 750.926 1548.04 L750.926 1543.34 Q753.01 1544.47 755.232 1545.03 Q757.454 1545.58 759.931 1545.58 Q763.935 1545.58 766.273 1543.48 Q768.611 1541.37 768.611 1537.76 Q768.611 1534.15 766.273 1532.04 Q763.935 1529.94 759.931 1529.94 Q758.056 1529.94 756.181 1530.35 Q754.329 1530.77 752.385 1531.65 L752.385 1514.29 Z" fill="#000000" fill-rule="evenodd" fill-opacity="1" /><path clip-path="url(#clip410)" d="M792.5 1517.37 Q788.889 1517.37 787.06 1520.93 Q785.255 1524.47 785.255 1531.6 Q785.255 1538.71 787.06 1542.27 Q788.889 1545.82 792.5 1545.82 Q796.134 1545.82 797.94 1542.27 Q799.769 1538.71 799.769 1531.6 Q799.769 1524.47 797.94 1520.93 Q796.134 1517.37 792.5 1517.37 M792.5 1513.66 Q798.31 1513.66 801.366 1518.27 Q804.444 1522.85 804.444 1531.6 Q804.444 1540.33 801.366 1544.94 Q798.31 1549.52 792.5 1549.52 Q786.69 1549.52 783.611 1544.94 Q780.556 1540.33 780.556 1531.6 Q780.556 1522.85 783.611 1518.27 Q786.69 1513.66 792.5 1513.66 Z" fill="#000000" fill-rule="evenodd" fill-opacity="1" /><path clip-path="url(#clip410)" d="M1231.17 1514.29 L1249.53 1514.29 L1249.53 1518.22 L1235.45 1518.22 L1235.45 1526.7 Q1236.47 1526.35 1237.49 1526.19 Q1238.51 1526 1239.53 1526 Q1245.31 1526 1248.69 1529.17 Q1252.07 1532.34 1252.07 1537.76 Q1252.07 1543.34 1248.6 1546.44 Q1245.13 1549.52 1238.81 1549.52 Q1236.63 1549.52 1234.37 1549.15 Q1232.12 1548.78 1229.71 1548.04 L1229.71 1543.34 Q1231.8 1544.47 1234.02 1545.03 Q1236.24 1545.58 1238.72 1545.58 Q1242.72 1545.58 1245.06 1543.48 Q1247.4 1541.37 1247.4 1537.76 Q1247.4 1534.15 1245.06 1532.04 Q1242.72 1529.94 1238.72 1529.94 Q1236.84 1529.94 1234.97 1530.35 Q1233.12 1530.77 1231.17 1531.65 L1231.17 1514.29 Z" fill="#000000" fill-rule="evenodd" fill-opacity="1" /><path clip-path="url(#clip410)" d="M1271.29 1517.37 Q1267.68 1517.37 1265.85 1520.93 Q1264.04 1524.47 1264.04 1531.6 Q1264.04 1538.71 1265.85 1542.27 Q1267.68 1545.82 1271.29 1545.82 Q1274.92 1545.82 1276.73 1542.27 Q1278.56 1538.71 1278.56 1531.6 Q1278.56 1524.47 1276.73 1520.93 Q1274.92 1517.37 1271.29 1517.37 M1271.29 1513.66 Q1277.1 1513.66 1280.15 1518.27 Q1283.23 1522.85 1283.23 1531.6 Q1283.23 1540.33 1280.15 1544.94 Q1277.1 1549.52 1271.29 1549.52 Q1265.48 1549.52 1262.4 1544.94 Q1259.34 1540.33 1259.34 1531.6 Q1259.34 1522.85 1262.4 1518.27 Q1265.48 1513.66 1271.29 1513.66 Z" fill="#000000" fill-rule="evenodd" fill-opacity="1" /><path clip-path="url(#clip410)" d="M1301.45 1517.37 Q1297.84 1517.37 1296.01 1520.93 Q1294.2 1524.47 1294.2 1531.6 Q1294.2 1538.71 1296.01 1542.27 Q1297.84 1545.82 1301.45 1545.82 Q1305.08 1545.82 1306.89 1542.27 Q1308.72 1538.71 1308.72 1531.6 Q1308.72 1524.47 1306.89 1520.93 Q1305.08 1517.37 1301.45 1517.37 M1301.45 1513.66 Q1307.26 1513.66 1310.31 1518.27 Q1313.39 1522.85 1313.39 1531.6 Q1313.39 1540.33 1310.31 1544.94 Q1307.26 1549.52 1301.45 1549.52 Q1295.64 1549.52 1292.56 1544.94 Q1289.5 1540.33 1289.5 1531.6 Q1289.5 1522.85 1292.56 1518.27 Q1295.64 1513.66 1301.45 1513.66 Z" fill="#000000" fill-rule="evenodd" fill-opacity="1" /><path clip-path="url(#clip410)" d="M1738.87 1514.29 L1761.09 1514.29 L1761.09 1516.28 L1748.55 1548.85 L1743.66 1548.85 L1755.47 1518.22 L1738.87 1518.22 L1738.87 1514.29 Z" fill="#000000" fill-rule="evenodd" fill-opacity="1" /><path clip-path="url(#clip410)" d="M1770.26 1514.29 L1788.61 1514.29 L1788.61 1518.22 L1774.54 1518.22 L1774.54 1526.7 Q1775.56 1526.35 1776.58 1526.19 Q1777.6 1526 1778.61 1526 Q1784.4 1526 1787.78 1529.17 Q1791.16 1532.34 1791.16 1537.76 Q1791.16 1543.34 1787.69 1546.44 Q1784.22 1549.52 1777.9 1549.52 Q1775.72 1549.52 1773.45 1549.15 Q1771.21 1548.78 1768.8 1548.04 L1768.8 1543.34 Q1770.88 1544.47 1773.11 1545.03 Q1775.33 1545.58 1777.8 1545.58 Q1781.81 1545.58 1784.15 1543.48 Q1786.49 1541.37 1786.49 1537.76 Q1786.49 1534.15 1784.15 1532.04 Q1781.81 1529.94 1777.8 1529.94 Q1775.93 1529.94 1774.05 1530.35 Q1772.2 1530.77 1770.26 1531.65 L1770.26 1514.29 Z" fill="#000000" fill-rule="evenodd" fill-opacity="1" /><path clip-path="url(#clip410)" d="M1810.37 1517.37 Q1806.76 1517.37 1804.93 1520.93 Q1803.13 1524.47 1803.13 1531.6 Q1803.13 1538.71 1804.93 1542.27 Q1806.76 1545.82 1810.37 1545.82 Q1814.01 1545.82 1815.81 1542.27 Q1817.64 1538.71 1817.64 1531.6 Q1817.64 1524.47 1815.81 1520.93 Q1814.01 1517.37 1810.37 1517.37 M1810.37 1513.66 Q1816.18 1513.66 1819.24 1518.27 Q1822.32 1522.85 1822.32 1531.6 Q1822.32 1540.33 1819.24 1544.94 Q1816.18 1549.52 1810.37 1549.52 Q1804.56 1549.52 1801.48 1544.94 Q1798.43 1540.33 1798.43 1531.6 Q1798.43 1522.85 1801.48 1518.27 Q1804.56 1513.66 1810.37 1513.66 Z" fill="#000000" fill-rule="evenodd" fill-opacity="1" /><path clip-path="url(#clip410)" d="M2234.16 1544.91 L2241.8 1544.91 L2241.8 1518.55 L2233.49 1520.21 L2233.49 1515.95 L2241.75 1514.29 L2246.43 1514.29 L2246.43 1544.91 L2254.07 1544.91 L2254.07 1548.85 L2234.16 1548.85 L2234.16 1544.91 Z" fill="#000000" fill-rule="evenodd" fill-opacity="1" /><path clip-path="url(#clip410)" d="M2273.51 1517.37 Q2269.9 1517.37 2268.07 1520.93 Q2266.27 1524.47 2266.27 1531.6 Q2266.27 1538.71 2268.07 1542.27 Q2269.9 1545.82 2273.51 1545.82 Q2277.15 1545.82 2278.95 1542.27 Q2280.78 1538.71 2280.78 1531.6 Q2280.78 1524.47 2278.95 1520.93 Q2277.15 1517.37 2273.51 1517.37 M2273.51 1513.66 Q2279.32 1513.66 2282.38 1518.27 Q2285.46 1522.85 2285.46 1531.6 Q2285.46 1540.33 2282.38 1544.94 Q2279.32 1549.52 2273.51 1549.52 Q2267.7 1549.52 2264.62 1544.94 Q2261.57 1540.33 2261.57 1531.6 Q2261.57 1522.85 2264.62 1518.27 Q2267.7 1513.66 2273.51 1513.66 Z" fill="#000000" fill-rule="evenodd" fill-opacity="1" /><path clip-path="url(#clip410)" d="M2303.67 1517.37 Q2300.06 1517.37 2298.23 1520.93 Q2296.43 1524.47 2296.43 1531.6 Q2296.43 1538.71 2298.23 1542.27 Q2300.06 1545.82 2303.67 1545.82 Q2307.31 1545.82 2309.11 1542.27 Q2310.94 1538.71 2310.94 1531.6 Q2310.94 1524.47 2309.11 1520.93 Q2307.31 1517.37 2303.67 1517.37 M2303.67 1513.66 Q2309.48 1513.66 2312.54 1518.27 Q2315.62 1522.85 2315.62 1531.6 Q2315.62 1540.33 2312.54 1544.94 Q2309.48 1549.52 2303.67 1549.52 Q2297.86 1549.52 2294.79 1544.94 Q2291.73 1540.33 2291.73 1531.6 Q2291.73 1522.85 2294.79 1518.27 Q2297.86 1513.66 2303.67 1513.66 Z" fill="#000000" fill-rule="evenodd" fill-opacity="1" /><path clip-path="url(#clip410)" d="M2333.84 1517.37 Q2330.22 1517.37 2328.4 1520.93 Q2326.59 1524.47 2326.59 1531.6 Q2326.59 1538.71 2328.4 1542.27 Q2330.22 1545.82 2333.84 1545.82 Q2337.47 1545.82 2339.28 1542.27 Q2341.1 1538.71 2341.1 1531.6 Q2341.1 1524.47 2339.28 1520.93 Q2337.47 1517.37 2333.84 1517.37 M2333.84 1513.66 Q2339.65 1513.66 2342.7 1518.27 Q2345.78 1522.85 2345.78 1531.6 Q2345.78 1540.33 2342.7 1544.94 Q2339.65 1549.52 2333.84 1549.52 Q2328.03 1549.52 2324.95 1544.94 Q2321.89 1540.33 2321.89 1531.6 Q2321.89 1522.85 2324.95 1518.27 Q2328.03 1513.66 2333.84 1513.66 Z" fill="#000000" fill-rule="evenodd" fill-opacity="1" /><polyline clip-path="url(#clip412)" style="stroke:#000000; stroke-linecap:butt; stroke-linejoin:round; stroke-width:2; stroke-opacity:0.1; fill:none" points="
  194.422,1287.68 2352.76,1287.68 
  "/>
<polyline clip-path="url(#clip412)" style="stroke:#000000; stroke-linecap:butt; stroke-linejoin:round; stroke-width:2; stroke-opacity:0.1; fill:none" points="
  194.422,1024.11 2352.76,1024.11 
  "/>
<polyline clip-path="url(#clip412)" style="stroke:#000000; stroke-linecap:butt; stroke-linejoin:round; stroke-width:2; stroke-opacity:0.1; fill:none" points="
  194.422,760.531 2352.76,760.531 
  "/>
<polyline clip-path="url(#clip412)" style="stroke:#000000; stroke-linecap:butt; stroke-linejoin:round; stroke-width:2; stroke-opacity:0.1; fill:none" points="
  194.422,496.955 2352.76,496.955 
  "/>
<polyline clip-path="url(#clip412)" style="stroke:#000000; stroke-linecap:butt; stroke-linejoin:round; stroke-width:2; stroke-opacity:0.1; fill:none" points="
  194.422,233.379 2352.76,233.379 
  "/>
<polyline clip-path="url(#clip410)" style="stroke:#000000; stroke-linecap:butt; stroke-linejoin:round; stroke-width:4; stroke-opacity:1; fill:none" points="
  194.422,1486.45 194.422,47.2441 
  "/>
<polyline clip-path="url(#clip410)" style="stroke:#000000; stroke-linecap:butt; stroke-linejoin:round; stroke-width:4; stroke-opacity:1; fill:none" points="
  194.422,1287.68 213.32,1287.68 
  "/>
<polyline clip-path="url(#clip410)" style="stroke:#000000; stroke-linecap:butt; stroke-linejoin:round; stroke-width:4; stroke-opacity:1; fill:none" points="
  194.422,1024.11 213.32,1024.11 
  "/>
<polyline clip-path="url(#clip410)" style="stroke:#000000; stroke-linecap:butt; stroke-linejoin:round; stroke-width:4; stroke-opacity:1; fill:none" points="
  194.422,760.531 213.32,760.531 
  "/>
<polyline clip-path="url(#clip410)" style="stroke:#000000; stroke-linecap:butt; stroke-linejoin:round; stroke-width:4; stroke-opacity:1; fill:none" points="
  194.422,496.955 213.32,496.955 
  "/>
<polyline clip-path="url(#clip410)" style="stroke:#000000; stroke-linecap:butt; stroke-linejoin:round; stroke-width:4; stroke-opacity:1; fill:none" points="
  194.422,233.379 213.32,233.379 
  "/>
<path clip-path="url(#clip410)" d="M50.9921 1288.14 L80.6679 1288.14 L80.6679 1292.07 L50.9921 1292.07 L50.9921 1288.14 Z" fill="#000000" fill-rule="evenodd" fill-opacity="1" /><path clip-path="url(#clip410)" d="M100.76 1273.48 Q97.1493 1273.48 95.3206 1277.05 Q93.515 1280.59 93.515 1287.72 Q93.515 1294.83 95.3206 1298.39 Q97.1493 1301.93 100.76 1301.93 Q104.395 1301.93 106.2 1298.39 Q108.029 1294.83 108.029 1287.72 Q108.029 1280.59 106.2 1277.05 Q104.395 1273.48 100.76 1273.48 M100.76 1269.78 Q106.571 1269.78 109.626 1274.39 Q112.705 1278.97 112.705 1287.72 Q112.705 1296.45 109.626 1301.05 Q106.571 1305.64 100.76 1305.64 Q94.9502 1305.64 91.8715 1301.05 Q88.816 1296.45 88.816 1287.72 Q88.816 1278.97 91.8715 1274.39 Q94.9502 1269.78 100.76 1269.78 Z" fill="#000000" fill-rule="evenodd" fill-opacity="1" /><path clip-path="url(#clip410)" d="M120.922 1299.08 L125.807 1299.08 L125.807 1304.96 L120.922 1304.96 L120.922 1299.08 Z" fill="#000000" fill-rule="evenodd" fill-opacity="1" /><path clip-path="url(#clip410)" d="M148.839 1274.48 L137.033 1292.93 L148.839 1292.93 L148.839 1274.48 M147.612 1270.4 L153.492 1270.4 L153.492 1292.93 L158.422 1292.93 L158.422 1296.82 L153.492 1296.82 L153.492 1304.96 L148.839 1304.96 L148.839 1296.82 L133.237 1296.82 L133.237 1292.3 L147.612 1270.4 Z" fill="#000000" fill-rule="evenodd" fill-opacity="1" /><path clip-path="url(#clip410)" d="M53.0754 1024.56 L82.7512 1024.56 L82.7512 1028.49 L53.0754 1028.49 L53.0754 1024.56 Z" fill="#000000" fill-rule="evenodd" fill-opacity="1" /><path clip-path="url(#clip410)" d="M102.844 1009.91 Q99.2326 1009.91 97.4039 1013.47 Q95.5984 1017.01 95.5984 1024.14 Q95.5984 1031.25 97.4039 1034.81 Q99.2326 1038.36 102.844 1038.36 Q106.478 1038.36 108.283 1034.81 Q110.112 1031.25 110.112 1024.14 Q110.112 1017.01 108.283 1013.47 Q106.478 1009.91 102.844 1009.91 M102.844 1006.2 Q108.654 1006.2 111.709 1010.81 Q114.788 1015.39 114.788 1024.14 Q114.788 1032.87 111.709 1037.48 Q108.654 1042.06 102.844 1042.06 Q97.0335 1042.06 93.9549 1037.48 Q90.8993 1032.87 90.8993 1024.14 Q90.8993 1015.39 93.9549 1010.81 Q97.0335 1006.2 102.844 1006.2 Z" fill="#000000" fill-rule="evenodd" fill-opacity="1" /><path clip-path="url(#clip410)" d="M123.006 1035.51 L127.89 1035.51 L127.89 1041.39 L123.006 1041.39 L123.006 1035.51 Z" fill="#000000" fill-rule="evenodd" fill-opacity="1" /><path clip-path="url(#clip410)" d="M142.103 1037.45 L158.422 1037.45 L158.422 1041.39 L136.478 1041.39 L136.478 1037.45 Q139.14 1034.7 143.723 1030.07 Q148.33 1025.42 149.51 1024.07 Q151.755 1021.55 152.635 1019.81 Q153.538 1018.05 153.538 1016.36 Q153.538 1013.61 151.593 1011.87 Q149.672 1010.14 146.57 1010.14 Q144.371 1010.14 141.918 1010.9 Q139.487 1011.67 136.709 1013.22 L136.709 1008.49 Q139.533 1007.36 141.987 1006.78 Q144.441 1006.2 146.478 1006.2 Q151.848 1006.2 155.042 1008.89 Q158.237 1011.57 158.237 1016.06 Q158.237 1018.19 157.427 1020.11 Q156.64 1022.01 154.533 1024.61 Q153.955 1025.28 150.853 1028.49 Q147.751 1031.69 142.103 1037.45 Z" fill="#000000" fill-rule="evenodd" fill-opacity="1" /><path clip-path="url(#clip410)" d="M101.246 746.33 Q97.6354 746.33 95.8067 749.895 Q94.0012 753.437 94.0012 760.566 Q94.0012 767.673 95.8067 771.237 Q97.6354 774.779 101.246 774.779 Q104.881 774.779 106.686 771.237 Q108.515 767.673 108.515 760.566 Q108.515 753.437 106.686 749.895 Q104.881 746.33 101.246 746.33 M101.246 742.626 Q107.057 742.626 110.112 747.233 Q113.191 751.816 113.191 760.566 Q113.191 769.293 110.112 773.899 Q107.057 778.483 101.246 778.483 Q95.4363 778.483 92.3576 773.899 Q89.3021 769.293 89.3021 760.566 Q89.3021 751.816 92.3576 747.233 Q95.4363 742.626 101.246 742.626 Z" fill="#000000" fill-rule="evenodd" fill-opacity="1" /><path clip-path="url(#clip410)" d="M121.408 771.932 L126.293 771.932 L126.293 777.811 L121.408 777.811 L121.408 771.932 Z" fill="#000000" fill-rule="evenodd" fill-opacity="1" /><path clip-path="url(#clip410)" d="M146.478 746.33 Q142.867 746.33 141.038 749.895 Q139.232 753.437 139.232 760.566 Q139.232 767.673 141.038 771.237 Q142.867 774.779 146.478 774.779 Q150.112 774.779 151.918 771.237 Q153.746 767.673 153.746 760.566 Q153.746 753.437 151.918 749.895 Q150.112 746.33 146.478 746.33 M146.478 742.626 Q152.288 742.626 155.343 747.233 Q158.422 751.816 158.422 760.566 Q158.422 769.293 155.343 773.899 Q152.288 778.483 146.478 778.483 Q140.668 778.483 137.589 773.899 Q134.533 769.293 134.533 760.566 Q134.533 751.816 137.589 747.233 Q140.668 742.626 146.478 742.626 Z" fill="#000000" fill-rule="evenodd" fill-opacity="1" /><path clip-path="url(#clip410)" d="M102.844 482.754 Q99.2326 482.754 97.4039 486.319 Q95.5984 489.86 95.5984 496.99 Q95.5984 504.096 97.4039 507.661 Q99.2326 511.203 102.844 511.203 Q106.478 511.203 108.283 507.661 Q110.112 504.096 110.112 496.99 Q110.112 489.86 108.283 486.319 Q106.478 482.754 102.844 482.754 M102.844 479.05 Q108.654 479.05 111.709 483.657 Q114.788 488.24 114.788 496.99 Q114.788 505.717 111.709 510.323 Q108.654 514.906 102.844 514.906 Q97.0335 514.906 93.9549 510.323 Q90.8993 505.717 90.8993 496.99 Q90.8993 488.24 93.9549 483.657 Q97.0335 479.05 102.844 479.05 Z" fill="#000000" fill-rule="evenodd" fill-opacity="1" /><path clip-path="url(#clip410)" d="M123.006 508.356 L127.89 508.356 L127.89 514.235 L123.006 514.235 L123.006 508.356 Z" fill="#000000" fill-rule="evenodd" fill-opacity="1" /><path clip-path="url(#clip410)" d="M142.103 510.3 L158.422 510.3 L158.422 514.235 L136.478 514.235 L136.478 510.3 Q139.14 507.545 143.723 502.916 Q148.33 498.263 149.51 496.92 Q151.755 494.397 152.635 492.661 Q153.538 490.902 153.538 489.212 Q153.538 486.458 151.593 484.721 Q149.672 482.985 146.57 482.985 Q144.371 482.985 141.918 483.749 Q139.487 484.513 136.709 486.064 L136.709 481.342 Q139.533 480.208 141.987 479.629 Q144.441 479.05 146.478 479.05 Q151.848 479.05 155.042 481.735 Q158.237 484.421 158.237 488.911 Q158.237 491.041 157.427 492.962 Q156.64 494.86 154.533 497.453 Q153.955 498.124 150.853 501.342 Q147.751 504.536 142.103 510.3 Z" fill="#000000" fill-rule="evenodd" fill-opacity="1" /><path clip-path="url(#clip410)" d="M100.76 219.178 Q97.1493 219.178 95.3206 222.742 Q93.515 226.284 93.515 233.414 Q93.515 240.52 95.3206 244.085 Q97.1493 247.626 100.76 247.626 Q104.395 247.626 106.2 244.085 Q108.029 240.52 108.029 233.414 Q108.029 226.284 106.2 222.742 Q104.395 219.178 100.76 219.178 M100.76 215.474 Q106.571 215.474 109.626 220.08 Q112.705 224.664 112.705 233.414 Q112.705 242.14 109.626 246.747 Q106.571 251.33 100.76 251.33 Q94.9502 251.33 91.8715 246.747 Q88.816 242.14 88.816 233.414 Q88.816 224.664 91.8715 220.08 Q94.9502 215.474 100.76 215.474 Z" fill="#000000" fill-rule="evenodd" fill-opacity="1" /><path clip-path="url(#clip410)" d="M120.922 244.779 L125.807 244.779 L125.807 250.659 L120.922 250.659 L120.922 244.779 Z" fill="#000000" fill-rule="evenodd" fill-opacity="1" /><path clip-path="url(#clip410)" d="M148.839 220.173 L137.033 238.622 L148.839 238.622 L148.839 220.173 M147.612 216.099 L153.492 216.099 L153.492 238.622 L158.422 238.622 L158.422 242.511 L153.492 242.511 L153.492 250.659 L148.839 250.659 L148.839 242.511 L133.237 242.511 L133.237 237.997 L147.612 216.099 Z" fill="#000000" fill-rule="evenodd" fill-opacity="1" /><polyline clip-path="url(#clip412)" style="stroke:#009af9; stroke-linecap:butt; stroke-linejoin:round; stroke-width:4; stroke-opacity:1; fill:none" points="
  255.507,1137.99 257.543,1205.08 259.579,1358.64 261.616,1123.6 263.652,816.799 265.688,790.455 267.724,835.944 269.76,1034.63 271.796,1190.16 273.833,1281.54 
  275.869,1350.8 277.905,1305.47 279.941,1019.71 281.977,775.373 284.013,602.91 286.049,768.254 288.086,761.054 290.122,489.088 292.158,368.027 294.194,491.139 
  296.23,710.257 298.266,699.277 300.303,561.122 302.339,488.083 304.375,617.269 306.411,476.057 308.447,441.669 310.483,316.827 312.52,366.297 314.556,378.082 
  316.592,406.638 318.628,547.326 320.664,542.942 322.7,619.32 324.737,595.389 326.773,445.369 328.809,495.604 330.845,519.897 332.881,498.5 334.917,585.937 
  336.954,649.967 338.99,717.858 341.026,618.515 343.062,868.803 345.098,987.773 347.134,763.186 349.171,662.999 351.207,511.611 353.243,222.914 355.279,335.207 
  357.315,564.098 359.351,515.11 361.388,418.06 363.424,263.938 365.46,119.991 367.496,328.973 369.532,493.874 371.568,688.94 373.605,858.628 375.641,933.155 
  377.677,1125.41 379.713,993.002 381.749,1029.08 383.785,1205.2 385.822,1147.53 387.858,1091.54 389.894,1211.31 391.93,1129.99 393.966,979.609 396.002,932.632 
  398.039,754.056 400.075,819.815 402.111,849.216 404.147,812.174 406.183,833.772 408.219,994.892 410.255,987.049 412.292,891.206 414.328,790.696 416.364,579.221 
  418.4,586.782 420.436,650.691 422.472,606.208 424.509,567.477 426.545,426.144 428.581,318.516 430.617,278.337 432.653,360.304 434.689,463.589 436.726,690.268 
  438.762,798.097 440.798,613.327 442.834,598.969 444.87,752.809 446.906,987.733 448.943,1061.17 450.979,919.681 453.015,763.83 455.051,700.725 457.087,768.777 
  459.123,787.157 461.16,769.742 463.196,843.264 465.232,940.756 467.268,1132.52 469.304,1245.3 471.34,1104.33 473.377,672.329 475.413,490.617 477.449,594.585 
  479.485,697.588 481.521,844.913 483.557,646.146 485.594,603.031 487.63,794.557 489.666,907.535 491.702,803.205 493.738,705.028 495.774,703.218 497.811,735.957 
  499.847,514.829 501.883,514.507 503.919,580.508 505.955,799.585 507.991,929.455 510.028,898.405 512.064,804.25 514.1,825.808 516.136,873.509 518.172,879.743 
  520.208,783.738 522.245,606.369 524.281,580.508 526.317,514.789 528.353,608.662 530.389,878.094 532.425,1048.18 534.461,958.574 536.498,819.815 538.534,937.539 
  540.57,1129.67 542.606,888.39 544.642,415.727 546.678,184.665 548.715,374.904 550.751,599.451 552.787,537.633 554.823,271.338 556.859,134.913 558.895,453.172 
  560.932,632.793 562.968,648.72 565.004,764.433 567.04,972.409 569.076,926.72 571.112,906.811 573.149,815.472 575.185,743.961 577.221,772.477 579.257,656.805 
  581.293,562.328 583.329,588.954 585.366,658.333 587.402,698.231 589.438,638.666 591.474,518.408 593.51,523.838 595.546,616.022 597.583,719.065 599.619,860.437 
  601.655,1035.27 603.691,1150.54 605.727,1086.11 607.763,767.65 609.8,711.705 611.836,852.152 613.872,1014.36 615.908,959.74 617.944,860.277 619.98,718.542 
  622.017,678.362 624.053,894.785 626.089,736.681 628.125,531.238 630.161,758.159 632.197,943.893 634.234,1227.4 636.27,1250.89 638.306,1036.84 640.342,883.322 
  642.378,864.942 644.414,1013.27 646.451,1084.58 648.487,952.34 650.523,716.893 652.559,711.061 654.595,1092.38 656.631,1248.36 658.667,1202.63 660.704,1126.09 
  662.74,1153.4 664.776,1056.67 666.812,826.975 668.848,753.694 670.884,626.921 672.921,762.18 674.957,637.7 676.993,653.104 679.029,785.146 681.065,957.407 
  683.101,869.809 685.138,736.359 687.174,782.089 689.21,1036.08 691.246,902.99 693.282,879.18 695.318,939.429 697.355,1164.78 699.391,1074.29 701.427,996.622 
  703.463,1049.83 705.499,1060.09 707.535,1210.19 709.572,1360.53 711.608,1237.3 713.644,1017.54 715.68,987.773 717.716,1071.35 719.752,1035.55 721.789,991.272 
  723.825,971.404 725.861,931.908 727.897,965.853 729.933,881.271 731.969,804.09 734.006,738.049 736.042,497.494 738.078,370.198 740.114,425.782 742.15,513.582 
  744.186,379.972 746.223,129.805 748.259,134.35 750.295,306.852 752.331,387.895 754.367,360.747 756.403,254.164 758.44,451.965 760.476,761.014 762.512,769.299 
  764.548,779.636 766.584,753.292 768.62,750.999 770.657,783.98 772.693,600.175 774.729,528.142 776.765,601.342 778.801,586.903 780.837,753.734 782.873,818.931 
  784.91,722.725 786.946,661.47 788.982,732.498 791.018,920.043 793.054,988.819 795.09,876.968 797.127,889.798 799.163,962.998 801.199,817.804 803.235,689.222 
  805.271,502.682 807.307,536.467 809.344,678.041 811.38,779.193 813.416,597.963 815.452,438.612 817.488,486.112 819.524,490.898 821.561,635.689 823.597,782.049 
  825.633,705.149 827.669,724.213 829.705,904.478 831.741,1057.23 833.778,962.314 835.814,688.82 837.85,696.421 839.886,807.79 841.922,857.944 843.958,736.601 
  845.995,675.386 848.031,1048.91 850.067,1097.73 852.103,865.867 854.139,666.659 856.175,719.507 858.212,645.342 860.248,605.685 862.284,717.094 864.32,714.842 
  866.356,517.443 868.392,490.978 870.429,748.023 872.465,861.765 874.501,915.78 876.537,677.679 878.573,438.17 880.609,486.152 882.646,665.653 884.682,653.708 
  886.718,621.612 888.754,742.513 890.79,723.006 892.826,832.806 894.863,929.173 896.899,855.812 898.935,813.38 900.971,783.658 903.007,771.793 905.043,835.944 
  907.079,699.237 909.116,536.467 911.152,537.513 913.188,564.138 915.224,768.374 917.26,975.265 919.296,1195.19 921.333,1265.37 923.369,1101.64 925.405,866.953 
  927.441,831.198 929.477,632.351 931.513,428.678 933.55,477.183 935.586,583.886 937.622,649.726 939.658,399.599 941.694,279.141 943.73,387.815 945.767,429 
  947.803,501.033 949.839,763.025 951.875,838.799 953.911,1025.58 955.947,1150.02 957.984,1050.23 960.02,911.517 962.056,858.266 964.092,867.194 966.128,724.816 
  968.164,766.042 970.201,853.56 972.237,802.561 974.273,582.318 976.309,738.893 978.345,910.23 980.381,857.381 982.418,813.34 984.454,796.81 986.49,890.28 
  988.526,938.786 990.562,953.466 992.598,926.358 994.635,908.942 996.671,879.421 998.707,760.974 1000.74,724.052 1002.78,744.806 1004.82,649.284 1006.85,665.653 
  1008.89,403.943 1010.92,488.002 1012.96,810.163 1015,942.084 1017.03,896.273 1019.07,780.802 1021.1,930.701 1023.14,1141.53 1025.18,1234.8 1027.21,1065.64 
  1029.25,749.029 1031.29,648.318 1033.32,901.22 1035.36,1049.03 1037.39,1185.69 1039.43,1093.63 1041.47,1369.3 1043.5,1445.72 1045.54,1225.63 1047.57,931.667 
  1049.61,1013.07 1051.65,969.634 1053.68,849.94 1055.72,844.47 1057.76,718.984 1059.79,826.693 1061.83,763.186 1063.86,595.188 1065.9,449.512 1067.94,458.521 
  1069.97,484.262 1072.01,460.613 1074.04,358.052 1076.08,463.468 1078.12,457.274 1080.15,599.29 1082.19,625.313 1084.23,571.74 1086.26,836.064 1088.3,1031.41 
  1090.33,881.472 1092.37,605.162 1094.41,516.277 1096.44,497.253 1098.48,394.129 1100.52,254.004 1102.55,384.557 1104.59,411.786 1106.62,421.599 1108.66,545.074 
  1110.7,609.949 1112.73,698.955 1114.77,665.532 1116.8,640.918 1118.84,367.544 1120.88,191.502 1122.91,350.893 1124.95,481.165 1126.99,476.861 1129.02,442.916 
  1131.06,574.515 1133.09,643.411 1135.13,474.247 1137.17,334.162 1139.2,414.199 1141.24,757.877 1143.27,1043.68 1145.31,944.255 1147.35,1002.74 1149.38,1157.5 
  1151.42,1149.22 1153.46,782.813 1155.49,575.681 1157.53,783.135 1159.56,573.027 1161.6,666.417 1163.64,716.169 1165.67,889.878 1167.71,866.108 1169.74,857.542 
  1171.78,639.591 1173.82,736.118 1175.85,954.029 1177.89,1185.41 1179.93,1141.13 1181.96,854.565 1184,704.706 1186.03,965.974 1188.07,983.872 1190.11,667.905 
  1192.14,444.082 1194.18,459.768 1196.21,700.966 1198.25,642.969 1200.29,541.293 1202.32,535.1 1204.36,453.212 1206.4,500.712 1208.43,642.245 1210.47,747.621 
  1212.5,862.046 1214.54,865.827 1216.58,697.949 1218.61,688.538 1220.65,716.571 1222.68,701.77 1224.72,736.359 1226.76,885.132 1228.79,837.351 1230.83,967.583 
  1232.87,1127.98 1234.9,1119.73 1236.94,1206.61 1238.97,1091.9 1241.01,854.203 1243.05,680.816 1245.08,796.649 1247.12,972.61 1249.16,787.398 1251.19,572.303 
  1253.23,598.003 1255.26,706.275 1257.3,748.828 1259.34,614.333 1261.37,400.082 1263.41,308.099 1265.44,427.311 1267.48,500.108 1269.52,488.847 1271.55,741.226 
  1273.59,997.667 1275.63,1115.91 1277.66,1052.12 1279.7,1079.39 1281.73,1201.58 1283.77,1238.34 1285.81,1098.22 1287.84,744.484 1289.88,578.457 1291.91,720.955 
  1293.95,787.479 1295.99,795 1298.02,764.232 1300.06,632.914 1302.1,756.469 1304.13,904.719 1306.17,898.606 1308.2,963.36 1310.24,725.138 1312.28,427.874 
  1314.31,365.372 1316.35,531.037 1318.38,746.977 1320.42,825.326 1322.46,581.513 1324.49,329.938 1326.53,324.629 1328.57,321.331 1330.6,344.619 1332.64,393.727 
  1334.67,479.194 1336.71,745.69 1338.75,974.501 1340.78,1027.47 1342.82,1008.08 1344.85,999.236 1346.89,817 1348.93,559.352 1350.96,473.322 1353,588.23 
  1355.04,692.962 1357.07,757.917 1359.11,785.91 1361.14,648.198 1363.18,673.657 1365.22,926.116 1367.25,1149.46 1369.29,1094.32 1371.32,959.7 1373.36,776.177 
  1375.4,763.548 1377.43,862.368 1379.47,934.562 1381.51,950.168 1383.54,742.593 1385.58,738.732 1387.61,822.108 1389.65,769.058 1391.69,649.686 1393.72,597.36 
  1395.76,644.135 1397.8,561.524 1399.83,606.691 1401.87,716.129 1403.9,877.33 1405.94,937.338 1407.98,903.151 1410.01,922.135 1412.05,1021.32 1414.08,1184.13 
  1416.12,1086.59 1418.16,993.203 1420.19,882.639 1422.23,985.441 1424.27,1115.55 1426.3,1312.71 1428.34,1371.43 1430.37,1352.69 1432.41,1169.41 1434.45,1125.85 
  1436.48,894.343 1438.52,763.588 1440.55,887.747 1442.59,826.291 1444.63,658.172 1446.66,758.762 1448.7,861.403 1450.74,717.215 1452.77,592.775 1454.81,400.001 
  1456.84,421.76 1458.88,822.832 1460.92,1097.41 1462.95,1124.6 1464.99,1205.2 1467.02,1253.79 1469.06,1236.09 1471.1,1256.48 1473.13,1276.23 1475.17,1256.76 
  1477.21,1271.89 1479.24,1015.48 1481.28,702.092 1483.31,743.519 1485.35,668.991 1487.39,795.362 1489.42,777.263 1491.46,755.102 1493.49,653.265 1495.53,820.298 
  1497.57,822.591 1499.6,751.562 1501.64,613.488 1503.68,439.336 1505.71,493.874 1507.75,676.995 1509.78,723.771 1511.82,677.518 1513.86,467.611 1515.89,401.851 
  1517.93,541.133 1519.96,328.41 1522,257.503 1524.04,436.239 1526.07,701.006 1528.11,954.23 1530.15,928.369 1532.18,969.956 1534.22,1071.55 1536.25,1010.38 
  1538.29,939.429 1540.33,765.72 1542.36,556.376 1544.4,551.228 1546.43,559.151 1548.47,533.089 1550.51,508.595 1552.54,761.296 1554.58,938.142 1556.62,981.539 
  1558.65,1029.64 1560.69,932.994 1562.72,888.149 1564.76,944.859 1566.8,780.159 1568.83,695.335 1570.87,556.295 1572.91,382.948 1574.94,485.227 1576.98,811.128 
  1579.01,835.541 1581.05,505.86 1583.09,275.762 1585.12,534.858 1587.16,710.94 1589.19,756.871 1591.23,531.882 1593.27,391.636 1595.3,87.9763 1597.34,217.846 
  1599.38,517.322 1601.41,672.772 1603.45,807.428 1605.48,754.378 1607.52,677.92 1609.56,755.544 1611.59,815.673 1613.63,859.472 1615.66,969.835 1617.7,868.562 
  1619.74,840.046 1621.77,939.59 1623.81,1002.09 1625.85,861.161 1627.88,694.249 1629.92,593.217 1631.95,610.109 1633.99,619.481 1636.03,654.552 1638.06,564.661 
  1640.1,534.335 1642.13,464.514 1644.17,235.905 1646.21,166.686 1648.24,620.366 1650.28,837.391 1652.32,906.328 1654.35,691.756 1656.39,768.415 1658.42,1022.28 
  1660.46,1156.54 1662.5,1279.89 1664.53,1139.92 1666.57,967.784 1668.6,1115.51 1670.64,985.722 1672.68,817.121 1674.71,646.79 1676.75,536.507 1678.79,514.467 
  1680.82,576.486 1682.86,754.78 1684.89,934.924 1686.93,993.203 1688.97,999.799 1691,756.429 1693.04,598.044 1695.07,639.792 1697.11,832.485 1699.15,836.507 
  1701.18,598.406 1703.22,513.26 1705.26,499.827 1707.29,613.005 1709.33,611.839 1711.36,584.329 1713.4,490.978 1715.44,253.119 1717.47,280.549 1719.51,596.435 
  1721.55,871.337 1723.58,890.642 1725.62,858.386 1727.65,993.002 1729.69,1077.83 1731.73,1052.57 1733.76,1052.97 1735.8,804.17 1737.83,646.79 1739.87,717.416 
  1741.91,851.75 1743.94,901.14 1745.98,1027.95 1748.02,1247.07 1750.05,1097.65 1752.09,1018.86 1754.12,1065.72 1756.16,1253.02 1758.2,1192.97 1760.23,881.593 
  1762.27,806.422 1764.3,846.079 1766.34,1020.11 1768.38,1067.33 1770.41,1185.53 1772.45,1100.95 1774.49,884.569 1776.52,731.171 1778.56,900.416 1780.59,879.22 
  1782.63,820.338 1784.67,738.893 1786.7,675.386 1788.74,549.579 1790.77,677.437 1792.81,914.613 1794.85,1012.75 1796.88,1049.59 1798.92,857.421 1800.96,634.684 
  1802.99,763.427 1805.03,1037.2 1807.06,1014.36 1809.1,890.522 1811.14,928.007 1813.17,987.492 1815.21,1167.23 1817.24,1131.52 1819.28,738.169 1821.32,521.747 
  1823.35,321.613 1825.39,377.518 1827.43,342.246 1829.46,317.068 1831.5,347.555 1833.53,281.675 1835.57,126.185 1837.61,228.343 1839.64,283.364 1841.68,442.956 
  1843.71,464.675 1845.75,524.28 1847.79,585.535 1849.82,784.261 1851.86,1018.66 1853.9,805.457 1855.93,587.144 1857.97,533.169 1860,731.774 1862.04,886.62 
  1864.08,754.257 1866.11,437.044 1868.15,365.372 1870.19,297.883 1872.22,362.476 1874.26,545.838 1876.29,799.907 1878.33,1040.74 1880.37,808.634 1882.4,592.855 
  1884.44,622.135 1886.47,743.197 1888.51,794.839 1890.55,741.347 1892.58,753.252 1894.62,728.476 1896.66,891.93 1898.69,925.473 1900.73,609.627 1902.76,507.831 
  1904.8,506.745 1906.84,496.489 1908.87,668.227 1910.91,741.467 1912.94,763.588 1914.98,761.778 1917.02,896.917 1919.05,1054.86 1921.09,1158.59 1923.13,974.139 
  1925.16,564.058 1927.2,357.208 1929.23,441.749 1931.27,655.317 1933.31,757.756 1935.34,684.959 1937.38,694.973 1939.41,975.386 1941.45,1192.73 1943.49,1256.04 
  1945.52,1049.63 1947.56,904.237 1949.6,860.639 1951.63,789.932 1953.67,720.553 1955.7,733.785 1957.74,811.007 1959.78,724.615 1961.81,829.629 1963.85,812.013 
  1965.88,829.87 1967.92,682.425 1969.96,604.358 1971.99,591.649 1974.03,527.337 1976.07,472.799 1978.1,377.961 1980.14,469.26 1982.17,554.807 1984.21,533.732 
  1986.25,653.587 1988.28,883.443 1990.32,1172.38 1992.35,1142.9 1994.39,813.622 1996.43,635.528 1998.46,925.231 2000.5,1232.35 2002.54,1277.32 2004.57,1064.23 
  2006.61,876.485 2008.64,839.483 2010.68,818.81 2012.72,966.135 2014.75,768.495 2016.79,676.07 2018.83,493.713 2020.86,377.116 2022.9,445.49 2024.93,500.47 
  2026.97,472.638 2029.01,350.933 2031.04,376.312 2033.08,571.539 2035.11,687.13 2037.15,791.501 2039.19,1074.13 2041.22,1031.97 2043.26,977.919 2045.3,950.972 
  2047.33,1124.92 2049.37,1072.03 2051.4,900.939 2053.44,696.864 2055.48,399.277 2057.51,301.463 2059.55,349.606 2061.58,555.933 2063.62,653.265 2065.66,605.806 
  2067.69,665.975 2069.73,730.246 2071.77,636.574 2073.8,635.488 2075.84,596.395 2077.87,687.01 2079.91,713.917 2081.95,739.899 2083.98,474.77 2086.02,443.318 
  2088.05,478.711 2090.09,656.483 2092.13,657.609 2094.16,532.485 2096.2,526.533 2098.24,532.928 2100.27,409.292 2102.31,394.451 2104.34,578.738 2106.38,882.599 
  2108.42,921.893 2110.45,890.039 2112.49,1079.84 2114.52,1141.65 2116.56,949.926 2118.6,630.541 2120.63,473.242 2122.67,633.598 2124.71,962.153 2126.74,966.779 
  2128.78,618.636 2130.81,554.124 2132.85,822.51 2134.89,1134.21 2136.92,1165.38 2138.96,1045.81 2140.99,1051.76 2143.03,1086.83 2145.07,922.295 2147.1,849.498 
  2149.14,825.486 2151.18,779.716 2153.21,819.172 2155.25,922.215 2157.28,1010.01 2159.32,959.016 2161.36,917.63 2163.39,893.659 2165.43,786.835 2167.46,608.702 
  2169.5,785.066 2171.54,936.775 2173.57,896.474 2175.61,904.84 2177.65,786.715 2179.68,775.936 2181.72,977.316 2183.75,1279.53 2185.79,1176.32 2187.83,1004.5 
  2189.86,1098.26 2191.9,1241.76 2193.94,1303.58 2195.97,1170.93 2198.01,1052 2200.04,1124.88 2202.08,1134.21 2204.12,985.079 2206.15,821.826 2208.19,678.684 
  2210.22,420.232 2212.26,360.988 2214.3,481.889 2216.33,691.595 2218.37,735.796 2220.41,811.57 2222.44,918.153 2224.48,1048.71 2226.51,990.79 2228.55,973.938 
  2230.59,863.253 2232.62,1112.49 2234.66,1261.99 2236.69,1241.52 2238.73,1127.86 2240.77,1011.91 2242.8,1189.03 2244.84,1086.71 2246.88,1017.94 2248.91,992.881 
  2250.95,840.287 2252.98,602.146 2255.02,677.437 2257.06,796.126 2259.09,874.635 2261.13,803.004 2263.16,642.084 2265.2,688.257 2267.24,730.045 2269.27,710.297 
  2271.31,669.836 2273.35,724.495 2275.38,649.082 2277.42,490.456 2279.45,433.706 2281.49,438.291 2283.53,546.361 2285.56,826.613 2287.6,565.667 2289.63,238.278 
  2291.67,112.43 
  "/>
<path clip-path="url(#clip410)" d="
M1988.38 198.898 L2280.81 198.898 L2280.81 95.2176 L1988.38 95.2176  Z
  " fill="#ffffff" fill-rule="evenodd" fill-opacity="1"/>
<polyline clip-path="url(#clip410)" style="stroke:#000000; stroke-linecap:butt; stroke-linejoin:round; stroke-width:4; stroke-opacity:1; fill:none" points="
  1988.38,198.898 2280.81,198.898 2280.81,95.2176 1988.38,95.2176 1988.38,198.898 
  "/>
<polyline clip-path="url(#clip410)" style="stroke:#009af9; stroke-linecap:butt; stroke-linejoin:round; stroke-width:4; stroke-opacity:1; fill:none" points="
  2012.38,147.058 2156.38,147.058 
  "/>
<path clip-path="url(#clip410)" d="M2194.22 166.745 Q2192.42 171.375 2190.71 172.787 Q2188.99 174.199 2186.12 174.199 L2182.72 174.199 L2182.72 170.634 L2185.22 170.634 Q2186.98 170.634 2187.95 169.8 Q2188.92 168.967 2190.1 165.865 L2190.87 163.921 L2180.38 138.412 L2184.9 138.412 L2193 158.689 L2201.1 138.412 L2205.61 138.412 L2194.22 166.745 Z" fill="#000000" fill-rule="evenodd" fill-opacity="1" /><path clip-path="url(#clip410)" d="M2212.9 160.402 L2220.54 160.402 L2220.54 134.037 L2212.23 135.703 L2212.23 131.444 L2220.5 129.778 L2225.17 129.778 L2225.17 160.402 L2232.81 160.402 L2232.81 164.338 L2212.9 164.338 L2212.9 160.402 Z" fill="#000000" fill-rule="evenodd" fill-opacity="1" /></svg>
