<?xml version="1.0" encoding="utf-8"?>
<svg xmlns="http://www.w3.org/2000/svg" xmlns:xlink="http://www.w3.org/1999/xlink" width="600" height="400" viewBox="0 0 2400 1600">
<defs>
  <clipPath id="clip450">
    <rect x="0" y="0" width="2400" height="1600"/>
  </clipPath>
</defs>
<path clip-path="url(#clip450)" d="
M0 1600 L2400 1600 L2400 0 L0 0  Z
  " fill="#ffffff" fill-rule="evenodd" fill-opacity="1"/>
<defs>
  <clipPath id="clip451">
    <rect x="480" y="0" width="1681" height="1600"/>
  </clipPath>
</defs>
<path clip-path="url(#clip450)" d="
M194.422 1486.45 L2352.76 1486.45 L2352.76 47.2441 L194.422 47.2441  Z
  " fill="#ffffff" fill-rule="evenodd" fill-opacity="1"/>
<defs>
  <clipPath id="clip452">
    <rect x="194" y="47" width="2159" height="1440"/>
  </clipPath>
</defs>
<polyline clip-path="url(#clip452)" style="stroke:#000000; stroke-linecap:butt; stroke-linejoin:round; stroke-width:2; stroke-opacity:0.1; fill:none" points="
  235.145,1486.45 235.145,47.2441 
  "/>
<polyline clip-path="url(#clip452)" style="stroke:#000000; stroke-linecap:butt; stroke-linejoin:round; stroke-width:2; stroke-opacity:0.1; fill:none" points="
  744.186,1486.45 744.186,47.2441 
  "/>
<polyline clip-path="url(#clip452)" style="stroke:#000000; stroke-linecap:butt; stroke-linejoin:round; stroke-width:2; stroke-opacity:0.1; fill:none" points="
  1253.23,1486.45 1253.23,47.2441 
  "/>
<polyline clip-path="url(#clip452)" style="stroke:#000000; stroke-linecap:butt; stroke-linejoin:round; stroke-width:2; stroke-opacity:0.1; fill:none" points="
  1762.27,1486.45 1762.27,47.2441 
  "/>
<polyline clip-path="url(#clip452)" style="stroke:#000000; stroke-linecap:butt; stroke-linejoin:round; stroke-width:2; stroke-opacity:0.1; fill:none" points="
  2271.31,1486.45 2271.31,47.2441 
  "/>
<polyline clip-path="url(#clip450)" style="stroke:#000000; stroke-linecap:butt; stroke-linejoin:round; stroke-width:4; stroke-opacity:1; fill:none" points="
  194.422,1486.45 2352.76,1486.45 
  "/>
<polyline clip-path="url(#clip450)" style="stroke:#000000; stroke-linecap:butt; stroke-linejoin:round; stroke-width:4; stroke-opacity:1; fill:none" points="
  235.145,1486.45 235.145,1467.55 
  "/>
<polyline clip-path="url(#clip450)" style="stroke:#000000; stroke-linecap:butt; stroke-linejoin:round; stroke-width:4; stroke-opacity:1; fill:none" points="
  744.186,1486.45 744.186,1467.55 
  "/>
<polyline clip-path="url(#clip450)" style="stroke:#000000; stroke-linecap:butt; stroke-linejoin:round; stroke-width:4; stroke-opacity:1; fill:none" points="
  1253.23,1486.45 1253.23,1467.55 
  "/>
<polyline clip-path="url(#clip450)" style="stroke:#000000; stroke-linecap:butt; stroke-linejoin:round; stroke-width:4; stroke-opacity:1; fill:none" points="
  1762.27,1486.45 1762.27,1467.55 
  "/>
<polyline clip-path="url(#clip450)" style="stroke:#000000; stroke-linecap:butt; stroke-linejoin:round; stroke-width:4; stroke-opacity:1; fill:none" points="
  2271.31,1486.45 2271.31,1467.55 
  "/>
<path clip-path="url(#clip450)" d="M235.145 1517.37 Q231.534 1517.37 229.706 1520.93 Q227.9 1524.47 227.9 1531.6 Q227.9 1538.71 229.706 1542.27 Q231.534 1545.82 235.145 1545.82 Q238.78 1545.82 240.585 1542.27 Q242.414 1538.71 242.414 1531.6 Q242.414 1524.47 240.585 1520.93 Q238.78 1517.37 235.145 1517.37 M235.145 1513.66 Q240.956 1513.66 244.011 1518.27 Q247.09 1522.85 247.09 1531.6 Q247.09 1540.33 244.011 1544.94 Q240.956 1549.52 235.145 1549.52 Q229.335 1549.52 226.257 1544.94 Q223.201 1540.33 223.201 1531.6 Q223.201 1522.85 226.257 1518.27 Q229.335 1513.66 235.145 1513.66 Z" fill="#000000" fill-rule="evenodd" fill-opacity="1" /><path clip-path="url(#clip450)" d="M723.457 1544.91 L739.777 1544.91 L739.777 1548.85 L717.832 1548.85 L717.832 1544.91 Q720.494 1542.16 725.078 1537.53 Q729.684 1532.88 730.865 1531.53 Q733.11 1529.01 733.99 1527.27 Q734.892 1525.51 734.892 1523.82 Q734.892 1521.07 732.948 1519.33 Q731.027 1517.6 727.925 1517.6 Q725.726 1517.6 723.272 1518.36 Q720.842 1519.13 718.064 1520.68 L718.064 1515.95 Q720.888 1514.82 723.342 1514.24 Q725.795 1513.66 727.832 1513.66 Q733.203 1513.66 736.397 1516.35 Q739.591 1519.03 739.591 1523.52 Q739.591 1525.65 738.781 1527.57 Q737.994 1529.47 735.888 1532.07 Q735.309 1532.74 732.207 1535.95 Q729.105 1539.15 723.457 1544.91 Z" fill="#000000" fill-rule="evenodd" fill-opacity="1" /><path clip-path="url(#clip450)" d="M749.638 1514.29 L767.994 1514.29 L767.994 1518.22 L753.92 1518.22 L753.92 1526.7 Q754.939 1526.35 755.957 1526.19 Q756.976 1526 757.994 1526 Q763.781 1526 767.161 1529.17 Q770.54 1532.34 770.54 1537.76 Q770.54 1543.34 767.068 1546.44 Q763.596 1549.52 757.277 1549.52 Q755.101 1549.52 752.832 1549.15 Q750.587 1548.78 748.179 1548.04 L748.179 1543.34 Q750.263 1544.47 752.485 1545.03 Q754.707 1545.58 757.184 1545.58 Q761.189 1545.58 763.527 1543.48 Q765.865 1541.37 765.865 1537.76 Q765.865 1534.15 763.527 1532.04 Q761.189 1529.94 757.184 1529.94 Q755.309 1529.94 753.434 1530.35 Q751.582 1530.77 749.638 1531.65 L749.638 1514.29 Z" fill="#000000" fill-rule="evenodd" fill-opacity="1" /><path clip-path="url(#clip450)" d="M1227.93 1514.29 L1246.28 1514.29 L1246.28 1518.22 L1232.21 1518.22 L1232.21 1526.7 Q1233.23 1526.35 1234.25 1526.19 Q1235.26 1526 1236.28 1526 Q1242.07 1526 1245.45 1529.17 Q1248.83 1532.34 1248.83 1537.76 Q1248.83 1543.34 1245.36 1546.44 Q1241.88 1549.52 1235.57 1549.52 Q1233.39 1549.52 1231.12 1549.15 Q1228.88 1548.78 1226.47 1548.04 L1226.47 1543.34 Q1228.55 1544.47 1230.77 1545.03 Q1233 1545.58 1235.47 1545.58 Q1239.48 1545.58 1241.82 1543.48 Q1244.15 1541.37 1244.15 1537.76 Q1244.15 1534.15 1241.82 1532.04 Q1239.48 1529.94 1235.47 1529.94 Q1233.6 1529.94 1231.72 1530.35 Q1229.87 1530.77 1227.93 1531.65 L1227.93 1514.29 Z" fill="#000000" fill-rule="evenodd" fill-opacity="1" /><path clip-path="url(#clip450)" d="M1268.04 1517.37 Q1264.43 1517.37 1262.6 1520.93 Q1260.8 1524.47 1260.8 1531.6 Q1260.8 1538.71 1262.6 1542.27 Q1264.43 1545.82 1268.04 1545.82 Q1271.68 1545.82 1273.48 1542.27 Q1275.31 1538.71 1275.31 1531.6 Q1275.31 1524.47 1273.48 1520.93 Q1271.68 1517.37 1268.04 1517.37 M1268.04 1513.66 Q1273.85 1513.66 1276.91 1518.27 Q1279.99 1522.85 1279.99 1531.6 Q1279.99 1540.33 1276.91 1544.94 Q1273.85 1549.52 1268.04 1549.52 Q1262.23 1549.52 1259.15 1544.94 Q1256.1 1540.33 1256.1 1531.6 Q1256.1 1522.85 1259.15 1518.27 Q1262.23 1513.66 1268.04 1513.66 Z" fill="#000000" fill-rule="evenodd" fill-opacity="1" /><path clip-path="url(#clip450)" d="M1736.12 1514.29 L1758.34 1514.29 L1758.34 1516.28 L1745.8 1548.85 L1740.91 1548.85 L1752.72 1518.22 L1736.12 1518.22 L1736.12 1514.29 Z" fill="#000000" fill-rule="evenodd" fill-opacity="1" /><path clip-path="url(#clip450)" d="M1767.51 1514.29 L1785.87 1514.29 L1785.87 1518.22 L1771.79 1518.22 L1771.79 1526.7 Q1772.81 1526.35 1773.83 1526.19 Q1774.85 1526 1775.87 1526 Q1781.65 1526 1785.03 1529.17 Q1788.41 1532.34 1788.41 1537.76 Q1788.41 1543.34 1784.94 1546.44 Q1781.47 1549.52 1775.15 1549.52 Q1772.97 1549.52 1770.71 1549.15 Q1768.46 1548.78 1766.05 1548.04 L1766.05 1543.34 Q1768.14 1544.47 1770.36 1545.03 Q1772.58 1545.58 1775.06 1545.58 Q1779.06 1545.58 1781.4 1543.48 Q1783.74 1541.37 1783.74 1537.76 Q1783.74 1534.15 1781.4 1532.04 Q1779.06 1529.94 1775.06 1529.94 Q1773.18 1529.94 1771.31 1530.35 Q1769.46 1530.77 1767.51 1531.65 L1767.51 1514.29 Z" fill="#000000" fill-rule="evenodd" fill-opacity="1" /><path clip-path="url(#clip450)" d="M2230.92 1544.91 L2238.55 1544.91 L2238.55 1518.55 L2230.24 1520.21 L2230.24 1515.95 L2238.51 1514.29 L2243.18 1514.29 L2243.18 1544.91 L2250.82 1544.91 L2250.82 1548.85 L2230.92 1548.85 L2230.92 1544.91 Z" fill="#000000" fill-rule="evenodd" fill-opacity="1" /><path clip-path="url(#clip450)" d="M2270.27 1517.37 Q2266.66 1517.37 2264.83 1520.93 Q2263.02 1524.47 2263.02 1531.6 Q2263.02 1538.71 2264.83 1542.27 Q2266.66 1545.82 2270.27 1545.82 Q2273.9 1545.82 2275.71 1542.27 Q2277.54 1538.71 2277.54 1531.6 Q2277.54 1524.47 2275.71 1520.93 Q2273.9 1517.37 2270.27 1517.37 M2270.27 1513.66 Q2276.08 1513.66 2279.13 1518.27 Q2282.21 1522.85 2282.21 1531.6 Q2282.21 1540.33 2279.13 1544.94 Q2276.08 1549.52 2270.27 1549.52 Q2264.46 1549.52 2261.38 1544.94 Q2258.32 1540.33 2258.32 1531.6 Q2258.32 1522.85 2261.38 1518.27 Q2264.46 1513.66 2270.27 1513.66 Z" fill="#000000" fill-rule="evenodd" fill-opacity="1" /><path clip-path="url(#clip450)" d="M2300.43 1517.37 Q2296.82 1517.37 2294.99 1520.93 Q2293.18 1524.47 2293.18 1531.6 Q2293.18 1538.71 2294.99 1542.27 Q2296.82 1545.82 2300.43 1545.82 Q2304.06 1545.82 2305.87 1542.27 Q2307.7 1538.71 2307.7 1531.6 Q2307.7 1524.47 2305.87 1520.93 Q2304.06 1517.37 2300.43 1517.37 M2300.43 1513.66 Q2306.24 1513.66 2309.3 1518.27 Q2312.37 1522.85 2312.37 1531.6 Q2312.37 1540.33 2309.3 1544.94 Q2306.24 1549.52 2300.43 1549.52 Q2294.62 1549.52 2291.54 1544.94 Q2288.49 1540.33 2288.49 1531.6 Q2288.49 1522.85 2291.54 1518.27 Q2294.62 1513.66 2300.43 1513.66 Z" fill="#000000" fill-rule="evenodd" fill-opacity="1" /><polyline clip-path="url(#clip452)" style="stroke:#000000; stroke-linecap:butt; stroke-linejoin:round; stroke-width:2; stroke-opacity:0.1; fill:none" points="
  194.422,1367.94 2352.76,1367.94 
  "/>
<polyline clip-path="url(#clip452)" style="stroke:#000000; stroke-linecap:butt; stroke-linejoin:round; stroke-width:2; stroke-opacity:0.1; fill:none" points="
  194.422,1079.02 2352.76,1079.02 
  "/>
<polyline clip-path="url(#clip452)" style="stroke:#000000; stroke-linecap:butt; stroke-linejoin:round; stroke-width:2; stroke-opacity:0.1; fill:none" points="
  194.422,790.102 2352.76,790.102 
  "/>
<polyline clip-path="url(#clip452)" style="stroke:#000000; stroke-linecap:butt; stroke-linejoin:round; stroke-width:2; stroke-opacity:0.1; fill:none" points="
  194.422,501.184 2352.76,501.184 
  "/>
<polyline clip-path="url(#clip452)" style="stroke:#000000; stroke-linecap:butt; stroke-linejoin:round; stroke-width:2; stroke-opacity:0.1; fill:none" points="
  194.422,212.266 2352.76,212.266 
  "/>
<polyline clip-path="url(#clip450)" style="stroke:#000000; stroke-linecap:butt; stroke-linejoin:round; stroke-width:4; stroke-opacity:1; fill:none" points="
  194.422,1486.45 194.422,47.2441 
  "/>
<polyline clip-path="url(#clip450)" style="stroke:#000000; stroke-linecap:butt; stroke-linejoin:round; stroke-width:4; stroke-opacity:1; fill:none" points="
  194.422,1367.94 213.32,1367.94 
  "/>
<polyline clip-path="url(#clip450)" style="stroke:#000000; stroke-linecap:butt; stroke-linejoin:round; stroke-width:4; stroke-opacity:1; fill:none" points="
  194.422,1079.02 213.32,1079.02 
  "/>
<polyline clip-path="url(#clip450)" style="stroke:#000000; stroke-linecap:butt; stroke-linejoin:round; stroke-width:4; stroke-opacity:1; fill:none" points="
  194.422,790.102 213.32,790.102 
  "/>
<polyline clip-path="url(#clip450)" style="stroke:#000000; stroke-linecap:butt; stroke-linejoin:round; stroke-width:4; stroke-opacity:1; fill:none" points="
  194.422,501.184 213.32,501.184 
  "/>
<polyline clip-path="url(#clip450)" style="stroke:#000000; stroke-linecap:butt; stroke-linejoin:round; stroke-width:4; stroke-opacity:1; fill:none" points="
  194.422,212.266 213.32,212.266 
  "/>
<path clip-path="url(#clip450)" d="M50.9921 1368.39 L80.6679 1368.39 L80.6679 1372.32 L50.9921 1372.32 L50.9921 1368.39 Z" fill="#000000" fill-rule="evenodd" fill-opacity="1" /><path clip-path="url(#clip450)" d="M100.76 1353.74 Q97.1493 1353.74 95.3206 1357.3 Q93.515 1360.84 93.515 1367.97 Q93.515 1375.08 95.3206 1378.64 Q97.1493 1382.19 100.76 1382.19 Q104.395 1382.19 106.2 1378.64 Q108.029 1375.08 108.029 1367.97 Q108.029 1360.84 106.2 1357.3 Q104.395 1353.74 100.76 1353.74 M100.76 1350.03 Q106.571 1350.03 109.626 1354.64 Q112.705 1359.22 112.705 1367.97 Q112.705 1376.7 109.626 1381.31 Q106.571 1385.89 100.76 1385.89 Q94.9502 1385.89 91.8715 1381.31 Q88.816 1376.7 88.816 1367.97 Q88.816 1359.22 91.8715 1354.64 Q94.9502 1350.03 100.76 1350.03 Z" fill="#000000" fill-rule="evenodd" fill-opacity="1" /><path clip-path="url(#clip450)" d="M120.922 1379.34 L125.807 1379.34 L125.807 1385.22 L120.922 1385.22 L120.922 1379.34 Z" fill="#000000" fill-rule="evenodd" fill-opacity="1" /><path clip-path="url(#clip450)" d="M148.839 1354.73 L137.033 1373.18 L148.839 1373.18 L148.839 1354.73 M147.612 1350.66 L153.492 1350.66 L153.492 1373.18 L158.422 1373.18 L158.422 1377.07 L153.492 1377.07 L153.492 1385.22 L148.839 1385.22 L148.839 1377.07 L133.237 1377.07 L133.237 1372.56 L147.612 1350.66 Z" fill="#000000" fill-rule="evenodd" fill-opacity="1" /><path clip-path="url(#clip450)" d="M53.0754 1079.47 L82.7512 1079.47 L82.7512 1083.41 L53.0754 1083.41 L53.0754 1079.47 Z" fill="#000000" fill-rule="evenodd" fill-opacity="1" /><path clip-path="url(#clip450)" d="M102.844 1064.82 Q99.2326 1064.82 97.4039 1068.38 Q95.5984 1071.92 95.5984 1079.05 Q95.5984 1086.16 97.4039 1089.73 Q99.2326 1093.27 102.844 1093.27 Q106.478 1093.27 108.283 1089.73 Q110.112 1086.16 110.112 1079.05 Q110.112 1071.92 108.283 1068.38 Q106.478 1064.82 102.844 1064.82 M102.844 1061.11 Q108.654 1061.11 111.709 1065.72 Q114.788 1070.3 114.788 1079.05 Q114.788 1087.78 111.709 1092.39 Q108.654 1096.97 102.844 1096.97 Q97.0335 1096.97 93.9549 1092.39 Q90.8993 1087.78 90.8993 1079.05 Q90.8993 1070.3 93.9549 1065.72 Q97.0335 1061.11 102.844 1061.11 Z" fill="#000000" fill-rule="evenodd" fill-opacity="1" /><path clip-path="url(#clip450)" d="M123.006 1090.42 L127.89 1090.42 L127.89 1096.3 L123.006 1096.3 L123.006 1090.42 Z" fill="#000000" fill-rule="evenodd" fill-opacity="1" /><path clip-path="url(#clip450)" d="M142.103 1092.36 L158.422 1092.36 L158.422 1096.3 L136.478 1096.3 L136.478 1092.36 Q139.14 1089.61 143.723 1084.98 Q148.33 1080.33 149.51 1078.99 Q151.755 1076.46 152.635 1074.73 Q153.538 1072.97 153.538 1071.28 Q153.538 1068.52 151.593 1066.79 Q149.672 1065.05 146.57 1065.05 Q144.371 1065.05 141.918 1065.81 Q139.487 1066.58 136.709 1068.13 L136.709 1063.41 Q139.533 1062.27 141.987 1061.69 Q144.441 1061.11 146.478 1061.11 Q151.848 1061.11 155.042 1063.8 Q158.237 1066.49 158.237 1070.98 Q158.237 1073.11 157.427 1075.03 Q156.64 1076.92 154.533 1079.52 Q153.955 1080.19 150.853 1083.41 Q147.751 1086.6 142.103 1092.36 Z" fill="#000000" fill-rule="evenodd" fill-opacity="1" /><path clip-path="url(#clip450)" d="M101.246 775.9 Q97.6354 775.9 95.8067 779.465 Q94.0012 783.007 94.0012 790.136 Q94.0012 797.243 95.8067 800.808 Q97.6354 804.349 101.246 804.349 Q104.881 804.349 106.686 800.808 Q108.515 797.243 108.515 790.136 Q108.515 783.007 106.686 779.465 Q104.881 775.9 101.246 775.9 M101.246 772.197 Q107.057 772.197 110.112 776.803 Q113.191 781.387 113.191 790.136 Q113.191 798.863 110.112 803.47 Q107.057 808.053 101.246 808.053 Q95.4363 808.053 92.3576 803.47 Q89.3021 798.863 89.3021 790.136 Q89.3021 781.387 92.3576 776.803 Q95.4363 772.197 101.246 772.197 Z" fill="#000000" fill-rule="evenodd" fill-opacity="1" /><path clip-path="url(#clip450)" d="M121.408 801.502 L126.293 801.502 L126.293 807.382 L121.408 807.382 L121.408 801.502 Z" fill="#000000" fill-rule="evenodd" fill-opacity="1" /><path clip-path="url(#clip450)" d="M146.478 775.9 Q142.867 775.9 141.038 779.465 Q139.232 783.007 139.232 790.136 Q139.232 797.243 141.038 800.808 Q142.867 804.349 146.478 804.349 Q150.112 804.349 151.918 800.808 Q153.746 797.243 153.746 790.136 Q153.746 783.007 151.918 779.465 Q150.112 775.9 146.478 775.9 M146.478 772.197 Q152.288 772.197 155.343 776.803 Q158.422 781.387 158.422 790.136 Q158.422 798.863 155.343 803.47 Q152.288 808.053 146.478 808.053 Q140.668 808.053 137.589 803.47 Q134.533 798.863 134.533 790.136 Q134.533 781.387 137.589 776.803 Q140.668 772.197 146.478 772.197 Z" fill="#000000" fill-rule="evenodd" fill-opacity="1" /><path clip-path="url(#clip450)" d="M102.844 486.982 Q99.2326 486.982 97.4039 490.547 Q95.5984 494.089 95.5984 501.218 Q95.5984 508.325 97.4039 511.89 Q99.2326 515.431 102.844 515.431 Q106.478 515.431 108.283 511.89 Q110.112 508.325 110.112 501.218 Q110.112 494.089 108.283 490.547 Q106.478 486.982 102.844 486.982 M102.844 483.279 Q108.654 483.279 111.709 487.885 Q114.788 492.468 114.788 501.218 Q114.788 509.945 111.709 514.552 Q108.654 519.135 102.844 519.135 Q97.0335 519.135 93.9549 514.552 Q90.8993 509.945 90.8993 501.218 Q90.8993 492.468 93.9549 487.885 Q97.0335 483.279 102.844 483.279 Z" fill="#000000" fill-rule="evenodd" fill-opacity="1" /><path clip-path="url(#clip450)" d="M123.006 512.584 L127.89 512.584 L127.89 518.464 L123.006 518.464 L123.006 512.584 Z" fill="#000000" fill-rule="evenodd" fill-opacity="1" /><path clip-path="url(#clip450)" d="M142.103 514.529 L158.422 514.529 L158.422 518.464 L136.478 518.464 L136.478 514.529 Q139.14 511.774 143.723 507.144 Q148.33 502.492 149.51 501.149 Q151.755 498.626 152.635 496.89 Q153.538 495.13 153.538 493.441 Q153.538 490.686 151.593 488.95 Q149.672 487.214 146.57 487.214 Q144.371 487.214 141.918 487.978 Q139.487 488.742 136.709 490.293 L136.709 485.57 Q139.533 484.436 141.987 483.857 Q144.441 483.279 146.478 483.279 Q151.848 483.279 155.042 485.964 Q158.237 488.649 158.237 493.14 Q158.237 495.269 157.427 497.191 Q156.64 499.089 154.533 501.681 Q153.955 502.353 150.853 505.57 Q147.751 508.765 142.103 514.529 Z" fill="#000000" fill-rule="evenodd" fill-opacity="1" /><path clip-path="url(#clip450)" d="M100.76 198.064 Q97.1493 198.064 95.3206 201.629 Q93.515 205.171 93.515 212.3 Q93.515 219.407 95.3206 222.972 Q97.1493 226.513 100.76 226.513 Q104.395 226.513 106.2 222.972 Q108.029 219.407 108.029 212.3 Q108.029 205.171 106.2 201.629 Q104.395 198.064 100.76 198.064 M100.76 194.361 Q106.571 194.361 109.626 198.967 Q112.705 203.55 112.705 212.3 Q112.705 221.027 109.626 225.634 Q106.571 230.217 100.76 230.217 Q94.9502 230.217 91.8715 225.634 Q88.816 221.027 88.816 212.3 Q88.816 203.55 91.8715 198.967 Q94.9502 194.361 100.76 194.361 Z" fill="#000000" fill-rule="evenodd" fill-opacity="1" /><path clip-path="url(#clip450)" d="M120.922 223.666 L125.807 223.666 L125.807 229.546 L120.922 229.546 L120.922 223.666 Z" fill="#000000" fill-rule="evenodd" fill-opacity="1" /><path clip-path="url(#clip450)" d="M148.839 199.06 L137.033 217.509 L148.839 217.509 L148.839 199.06 M147.612 194.986 L153.492 194.986 L153.492 217.509 L158.422 217.509 L158.422 221.398 L153.492 221.398 L153.492 229.546 L148.839 229.546 L148.839 221.398 L133.237 221.398 L133.237 216.884 L147.612 194.986 Z" fill="#000000" fill-rule="evenodd" fill-opacity="1" /><polyline clip-path="url(#clip452)" style="stroke:#009af9; stroke-linecap:butt; stroke-linejoin:round; stroke-width:4; stroke-opacity:1; fill:none" points="
  255.507,1203.86 275.869,1277.39 296.23,1445.72 316.592,1188.07 336.954,851.779 357.315,822.902 377.677,872.764 398.039,1090.55 418.4,1261.04 438.762,1361.2 
  459.123,1437.12 479.485,1387.43 499.847,1074.2 520.208,806.37 540.57,617.326 560.932,798.566 581.293,790.675 601.655,492.56 622.017,359.859 642.378,494.809 
  662.74,734.993 683.101,722.958 703.463,571.52 723.825,491.458 744.186,633.065 764.548,478.276 784.91,440.582 805.271,303.737 825.633,357.963 845.995,370.881 
  866.356,402.182 886.718,556.398 907.079,551.592 927.441,635.313 947.803,609.082 968.164,444.638 988.526,499.702 1008.89,526.331 1029.25,502.877 1049.61,598.721 
  1069.97,668.907 1090.33,743.326 1110.7,634.431 1131.06,908.783 1151.42,1039.19 1171.78,793.011 1192.14,683.191 1212.5,517.249 1232.87,200.794 1253.23,323.884 
  1273.59,574.782 1293.95,521.084 1314.31,414.703 1334.67,245.763 1355.04,87.9763 1375.4,317.051 1395.76,497.807 1416.12,711.627 1436.48,897.629 1456.84,979.322 
  1477.21,1190.06 1497.57,1044.92 1517.93,1084.47 1538.29,1277.52 1558.65,1214.3 1579.01,1152.94 1599.38,1284.23 1619.74,1195.08 1640.1,1030.24 1660.46,978.749 
  1680.82,783.004 1701.18,855.086 1721.55,887.313 1741.91,846.709 1762.27,870.384 1782.63,1047 1802.99,1038.4 1823.35,933.34 1843.71,823.167 1864.08,591.359 
  1884.44,599.647 1904.8,669.701 1925.16,620.941 1945.52,578.485 1965.88,423.565 1986.25,305.588 2006.61,261.546 2026.97,351.395 2047.33,464.609 2067.69,713.082 
  2088.05,831.279 2108.42,628.744 2128.78,613.005 2149.14,781.637 2169.5,1039.15 2189.86,1119.65 2210.22,964.553 2230.59,793.717 2250.95,724.545 2271.31,799.14 
  2291.67,819.287 
  "/>
<path clip-path="url(#clip450)" d="
M1988.38 198.898 L2280.81 198.898 L2280.81 95.2176 L1988.38 95.2176  Z
  " fill="#ffffff" fill-rule="evenodd" fill-opacity="1"/>
<polyline clip-path="url(#clip450)" style="stroke:#000000; stroke-linecap:butt; stroke-linejoin:round; stroke-width:4; stroke-opacity:1; fill:none" points="
  1988.38,198.898 2280.81,198.898 2280.81,95.2176 1988.38,95.2176 1988.38,198.898 
  "/>
<polyline clip-path="url(#clip450)" style="stroke:#009af9; stroke-linecap:butt; stroke-linejoin:round; stroke-width:4; stroke-opacity:1; fill:none" points="
  2012.38,147.058 2156.38,147.058 
  "/>
<path clip-path="url(#clip450)" d="M2194.22 166.745 Q2192.42 171.375 2190.71 172.787 Q2188.99 174.199 2186.12 174.199 L2182.72 174.199 L2182.72 170.634 L2185.22 170.634 Q2186.98 170.634 2187.95 169.8 Q2188.92 168.967 2190.1 165.865 L2190.87 163.921 L2180.38 138.412 L2184.9 138.412 L2193 158.689 L2201.1 138.412 L2205.61 138.412 L2194.22 166.745 Z" fill="#000000" fill-rule="evenodd" fill-opacity="1" /><path clip-path="url(#clip450)" d="M2212.9 160.402 L2220.54 160.402 L2220.54 134.037 L2212.23 135.703 L2212.23 131.444 L2220.5 129.778 L2225.17 129.778 L2225.17 160.402 L2232.81 160.402 L2232.81 164.338 L2212.9 164.338 L2212.9 160.402 Z" fill="#000000" fill-rule="evenodd" fill-opacity="1" /></svg>
