<?xml version="1.0" encoding="utf-8"?>
<svg xmlns="http://www.w3.org/2000/svg" xmlns:xlink="http://www.w3.org/1999/xlink" width="600" height="400" viewBox="0 0 2400 1600">
<defs>
  <clipPath id="clip490">
    <rect x="0" y="0" width="2400" height="1600"/>
  </clipPath>
</defs>
<path clip-path="url(#clip490)" d="
M0 1600 L2400 1600 L2400 0 L0 0  Z
  " fill="#ffffff" fill-rule="evenodd" fill-opacity="1"/>
<defs>
  <clipPath id="clip491">
    <rect x="480" y="0" width="1681" height="1600"/>
  </clipPath>
</defs>
<path clip-path="url(#clip490)" d="
M194.422 1486.45 L2352.76 1486.45 L2352.76 47.2441 L194.422 47.2441  Z
  " fill="#ffffff" fill-rule="evenodd" fill-opacity="1"/>
<defs>
  <clipPath id="clip492">
    <rect x="194" y="47" width="2159" height="1440"/>
  </clipPath>
</defs>
<polyline clip-path="url(#clip492)" style="stroke:#000000; stroke-linecap:butt; stroke-linejoin:round; stroke-width:2; stroke-opacity:0.1; fill:none" points="
  459.123,1486.45 459.123,47.2441 
  "/>
<polyline clip-path="url(#clip492)" style="stroke:#000000; stroke-linecap:butt; stroke-linejoin:round; stroke-width:2; stroke-opacity:0.1; fill:none" points="
  866.356,1486.45 866.356,47.2441 
  "/>
<polyline clip-path="url(#clip492)" style="stroke:#000000; stroke-linecap:butt; stroke-linejoin:round; stroke-width:2; stroke-opacity:0.1; fill:none" points="
  1273.59,1486.45 1273.59,47.2441 
  "/>
<polyline clip-path="url(#clip492)" style="stroke:#000000; stroke-linecap:butt; stroke-linejoin:round; stroke-width:2; stroke-opacity:0.1; fill:none" points="
  1680.82,1486.45 1680.82,47.2441 
  "/>
<polyline clip-path="url(#clip492)" style="stroke:#000000; stroke-linecap:butt; stroke-linejoin:round; stroke-width:2; stroke-opacity:0.1; fill:none" points="
  2088.05,1486.45 2088.05,47.2441 
  "/>
<polyline clip-path="url(#clip490)" style="stroke:#000000; stroke-linecap:butt; stroke-linejoin:round; stroke-width:4; stroke-opacity:1; fill:none" points="
  194.422,1486.45 2352.76,1486.45 
  "/>
<polyline clip-path="url(#clip490)" style="stroke:#000000; stroke-linecap:butt; stroke-linejoin:round; stroke-width:4; stroke-opacity:1; fill:none" points="
  459.123,1486.45 459.123,1467.55 
  "/>
<polyline clip-path="url(#clip490)" style="stroke:#000000; stroke-linecap:butt; stroke-linejoin:round; stroke-width:4; stroke-opacity:1; fill:none" points="
  866.356,1486.45 866.356,1467.55 
  "/>
<polyline clip-path="url(#clip490)" style="stroke:#000000; stroke-linecap:butt; stroke-linejoin:round; stroke-width:4; stroke-opacity:1; fill:none" points="
  1273.59,1486.45 1273.59,1467.55 
  "/>
<polyline clip-path="url(#clip490)" style="stroke:#000000; stroke-linecap:butt; stroke-linejoin:round; stroke-width:4; stroke-opacity:1; fill:none" points="
  1680.82,1486.45 1680.82,1467.55 
  "/>
<polyline clip-path="url(#clip490)" style="stroke:#000000; stroke-linecap:butt; stroke-linejoin:round; stroke-width:4; stroke-opacity:1; fill:none" points="
  2088.05,1486.45 2088.05,1467.55 
  "/>
<path clip-path="url(#clip490)" d="M453.776 1544.91 L470.096 1544.91 L470.096 1548.85 L448.151 1548.85 L448.151 1544.91 Q450.813 1542.16 455.397 1537.53 Q460.003 1532.88 461.184 1531.53 Q463.429 1529.01 464.309 1527.27 Q465.211 1525.51 465.211 1523.82 Q465.211 1521.07 463.267 1519.33 Q461.346 1517.6 458.244 1517.6 Q456.045 1517.6 453.591 1518.36 Q451.161 1519.13 448.383 1520.68 L448.383 1515.95 Q451.207 1514.82 453.66 1514.24 Q456.114 1513.66 458.151 1513.66 Q463.522 1513.66 466.716 1516.35 Q469.91 1519.03 469.91 1523.52 Q469.91 1525.65 469.1 1527.57 Q468.313 1529.47 466.207 1532.07 Q465.628 1532.74 462.526 1535.95 Q459.424 1539.15 453.776 1544.91 Z" fill="#000000" fill-rule="evenodd" fill-opacity="1" /><path clip-path="url(#clip490)" d="M869.365 1518.36 L857.56 1536.81 L869.365 1536.81 L869.365 1518.36 M868.139 1514.29 L874.018 1514.29 L874.018 1536.81 L878.949 1536.81 L878.949 1540.7 L874.018 1540.7 L874.018 1548.85 L869.365 1548.85 L869.365 1540.7 L853.764 1540.7 L853.764 1536.19 L868.139 1514.29 Z" fill="#000000" fill-rule="evenodd" fill-opacity="1" /><path clip-path="url(#clip490)" d="M1273.99 1529.7 Q1270.85 1529.7 1268.99 1531.86 Q1267.17 1534.01 1267.17 1537.76 Q1267.17 1541.49 1268.99 1543.66 Q1270.85 1545.82 1273.99 1545.82 Q1277.14 1545.82 1278.97 1543.66 Q1280.82 1541.49 1280.82 1537.76 Q1280.82 1534.01 1278.97 1531.86 Q1277.14 1529.7 1273.99 1529.7 M1283.28 1515.05 L1283.28 1519.31 Q1281.52 1518.48 1279.71 1518.04 Q1277.93 1517.6 1276.17 1517.6 Q1271.54 1517.6 1269.09 1520.72 Q1266.66 1523.85 1266.31 1530.17 Q1267.67 1528.15 1269.73 1527.09 Q1271.8 1526 1274.27 1526 Q1279.48 1526 1282.49 1529.17 Q1285.52 1532.32 1285.52 1537.76 Q1285.52 1543.08 1282.37 1546.3 Q1279.23 1549.52 1273.99 1549.52 Q1268 1549.52 1264.83 1544.94 Q1261.66 1540.33 1261.66 1531.6 Q1261.66 1523.41 1265.55 1518.55 Q1269.43 1513.66 1275.98 1513.66 Q1277.74 1513.66 1279.53 1514.01 Q1281.33 1514.36 1283.28 1515.05 Z" fill="#000000" fill-rule="evenodd" fill-opacity="1" /><path clip-path="url(#clip490)" d="M1680.82 1532.44 Q1677.49 1532.44 1675.57 1534.22 Q1673.67 1536 1673.67 1539.13 Q1673.67 1542.25 1675.57 1544.03 Q1677.49 1545.82 1680.82 1545.82 Q1684.16 1545.82 1686.08 1544.03 Q1688 1542.23 1688 1539.13 Q1688 1536 1686.08 1534.22 Q1684.18 1532.44 1680.82 1532.44 M1676.15 1530.45 Q1673.14 1529.7 1671.45 1527.64 Q1669.78 1525.58 1669.78 1522.62 Q1669.78 1518.48 1672.72 1516.07 Q1675.68 1513.66 1680.82 1513.66 Q1685.98 1513.66 1688.92 1516.07 Q1691.86 1518.48 1691.86 1522.62 Q1691.86 1525.58 1690.17 1527.64 Q1688.51 1529.7 1685.52 1530.45 Q1688.9 1531.23 1690.78 1533.52 Q1692.67 1535.82 1692.67 1539.13 Q1692.67 1544.15 1689.59 1546.83 Q1686.54 1549.52 1680.82 1549.52 Q1675.1 1549.52 1672.03 1546.83 Q1668.97 1544.15 1668.97 1539.13 Q1668.97 1535.82 1670.87 1533.52 Q1672.77 1531.23 1676.15 1530.45 M1674.43 1523.06 Q1674.43 1525.75 1676.1 1527.25 Q1677.79 1528.76 1680.82 1528.76 Q1683.83 1528.76 1685.52 1527.25 Q1687.23 1525.75 1687.23 1523.06 Q1687.23 1520.38 1685.52 1518.87 Q1683.83 1517.37 1680.82 1517.37 Q1677.79 1517.37 1676.1 1518.87 Q1674.43 1520.38 1674.43 1523.06 Z" fill="#000000" fill-rule="evenodd" fill-opacity="1" /><path clip-path="url(#clip490)" d="M2062.74 1544.91 L2070.38 1544.91 L2070.38 1518.55 L2062.07 1520.21 L2062.07 1515.95 L2070.33 1514.29 L2075.01 1514.29 L2075.01 1544.91 L2082.65 1544.91 L2082.65 1548.85 L2062.74 1548.85 L2062.74 1544.91 Z" fill="#000000" fill-rule="evenodd" fill-opacity="1" /><path clip-path="url(#clip490)" d="M2102.09 1517.37 Q2098.48 1517.37 2096.65 1520.93 Q2094.85 1524.47 2094.85 1531.6 Q2094.85 1538.71 2096.65 1542.27 Q2098.48 1545.82 2102.09 1545.82 Q2105.73 1545.82 2107.53 1542.27 Q2109.36 1538.71 2109.36 1531.6 Q2109.36 1524.47 2107.53 1520.93 Q2105.73 1517.37 2102.09 1517.37 M2102.09 1513.66 Q2107.9 1513.66 2110.96 1518.27 Q2114.04 1522.85 2114.04 1531.6 Q2114.04 1540.33 2110.96 1544.94 Q2107.9 1549.52 2102.09 1549.52 Q2096.28 1549.52 2093.21 1544.94 Q2090.15 1540.33 2090.15 1531.6 Q2090.15 1522.85 2093.21 1518.27 Q2096.28 1513.66 2102.09 1513.66 Z" fill="#000000" fill-rule="evenodd" fill-opacity="1" /><polyline clip-path="url(#clip492)" style="stroke:#000000; stroke-linecap:butt; stroke-linejoin:round; stroke-width:2; stroke-opacity:0.1; fill:none" points="
  194.422,1276.16 2352.76,1276.16 
  "/>
<polyline clip-path="url(#clip492)" style="stroke:#000000; stroke-linecap:butt; stroke-linejoin:round; stroke-width:2; stroke-opacity:0.1; fill:none" points="
  194.422,961.237 2352.76,961.237 
  "/>
<polyline clip-path="url(#clip492)" style="stroke:#000000; stroke-linecap:butt; stroke-linejoin:round; stroke-width:2; stroke-opacity:0.1; fill:none" points="
  194.422,646.315 2352.76,646.315 
  "/>
<polyline clip-path="url(#clip492)" style="stroke:#000000; stroke-linecap:butt; stroke-linejoin:round; stroke-width:2; stroke-opacity:0.1; fill:none" points="
  194.422,331.393 2352.76,331.393 
  "/>
<polyline clip-path="url(#clip490)" style="stroke:#000000; stroke-linecap:butt; stroke-linejoin:round; stroke-width:4; stroke-opacity:1; fill:none" points="
  194.422,1486.45 194.422,47.2441 
  "/>
<polyline clip-path="url(#clip490)" style="stroke:#000000; stroke-linecap:butt; stroke-linejoin:round; stroke-width:4; stroke-opacity:1; fill:none" points="
  194.422,1276.16 213.32,1276.16 
  "/>
<polyline clip-path="url(#clip490)" style="stroke:#000000; stroke-linecap:butt; stroke-linejoin:round; stroke-width:4; stroke-opacity:1; fill:none" points="
  194.422,961.237 213.32,961.237 
  "/>
<polyline clip-path="url(#clip490)" style="stroke:#000000; stroke-linecap:butt; stroke-linejoin:round; stroke-width:4; stroke-opacity:1; fill:none" points="
  194.422,646.315 213.32,646.315 
  "/>
<polyline clip-path="url(#clip490)" style="stroke:#000000; stroke-linecap:butt; stroke-linejoin:round; stroke-width:4; stroke-opacity:1; fill:none" points="
  194.422,331.393 213.32,331.393 
  "/>
<path clip-path="url(#clip490)" d="M50.9921 1276.61 L80.6679 1276.61 L80.6679 1280.55 L50.9921 1280.55 L50.9921 1276.61 Z" fill="#000000" fill-rule="evenodd" fill-opacity="1" /><path clip-path="url(#clip490)" d="M100.76 1261.96 Q97.1493 1261.96 95.3206 1265.52 Q93.515 1269.06 93.515 1276.19 Q93.515 1283.3 95.3206 1286.87 Q97.1493 1290.41 100.76 1290.41 Q104.395 1290.41 106.2 1286.87 Q108.029 1283.3 108.029 1276.19 Q108.029 1269.06 106.2 1265.52 Q104.395 1261.96 100.76 1261.96 M100.76 1258.25 Q106.571 1258.25 109.626 1262.86 Q112.705 1267.44 112.705 1276.19 Q112.705 1284.92 109.626 1289.53 Q106.571 1294.11 100.76 1294.11 Q94.9502 1294.11 91.8715 1289.53 Q88.816 1284.92 88.816 1276.19 Q88.816 1267.44 91.8715 1262.86 Q94.9502 1258.25 100.76 1258.25 Z" fill="#000000" fill-rule="evenodd" fill-opacity="1" /><path clip-path="url(#clip490)" d="M120.922 1287.56 L125.807 1287.56 L125.807 1293.44 L120.922 1293.44 L120.922 1287.56 Z" fill="#000000" fill-rule="evenodd" fill-opacity="1" /><path clip-path="url(#clip490)" d="M148.839 1262.95 L137.033 1281.4 L148.839 1281.4 L148.839 1262.95 M147.612 1258.88 L153.492 1258.88 L153.492 1281.4 L158.422 1281.4 L158.422 1285.29 L153.492 1285.29 L153.492 1293.44 L148.839 1293.44 L148.839 1285.29 L133.237 1285.29 L133.237 1280.78 L147.612 1258.88 Z" fill="#000000" fill-rule="evenodd" fill-opacity="1" /><path clip-path="url(#clip490)" d="M52.1264 961.689 L81.8021 961.689 L81.8021 965.624 L52.1264 965.624 L52.1264 961.689 Z" fill="#000000" fill-rule="evenodd" fill-opacity="1" /><path clip-path="url(#clip490)" d="M101.895 947.036 Q98.2835 947.036 96.4548 950.601 Q94.6493 954.142 94.6493 961.272 Q94.6493 968.378 96.4548 971.943 Q98.2835 975.485 101.895 975.485 Q105.529 975.485 107.334 971.943 Q109.163 968.378 109.163 961.272 Q109.163 954.142 107.334 950.601 Q105.529 947.036 101.895 947.036 M101.895 943.332 Q107.705 943.332 110.76 947.939 Q113.839 952.522 113.839 961.272 Q113.839 969.999 110.76 974.605 Q107.705 979.188 101.895 979.188 Q96.0845 979.188 93.0058 974.605 Q89.9503 969.999 89.9503 961.272 Q89.9503 952.522 93.0058 947.939 Q96.0845 943.332 101.895 943.332 Z" fill="#000000" fill-rule="evenodd" fill-opacity="1" /><path clip-path="url(#clip490)" d="M122.057 972.638 L126.941 972.638 L126.941 978.517 L122.057 978.517 L122.057 972.638 Z" fill="#000000" fill-rule="evenodd" fill-opacity="1" /><path clip-path="url(#clip490)" d="M151.293 959.883 Q154.649 960.601 156.524 962.869 Q158.422 965.138 158.422 968.471 Q158.422 973.587 154.904 976.388 Q151.385 979.188 144.904 979.188 Q142.728 979.188 140.413 978.749 Q138.121 978.332 135.668 977.475 L135.668 972.962 Q137.612 974.096 139.927 974.675 Q142.242 975.253 144.765 975.253 Q149.163 975.253 151.455 973.517 Q153.769 971.781 153.769 968.471 Q153.769 965.415 151.617 963.702 Q149.487 961.966 145.668 961.966 L141.64 961.966 L141.64 958.124 L145.853 958.124 Q149.302 958.124 151.13 956.758 Q152.959 955.369 152.959 952.777 Q152.959 950.115 151.061 948.702 Q149.186 947.267 145.668 947.267 Q143.746 947.267 141.547 947.684 Q139.348 948.101 136.709 948.98 L136.709 944.814 Q139.371 944.073 141.686 943.703 Q144.024 943.332 146.084 943.332 Q151.408 943.332 154.51 945.763 Q157.612 948.17 157.612 952.29 Q157.612 955.161 155.968 957.152 Q154.325 959.119 151.293 959.883 Z" fill="#000000" fill-rule="evenodd" fill-opacity="1" /><path clip-path="url(#clip490)" d="M53.0754 646.766 L82.7512 646.766 L82.7512 650.702 L53.0754 650.702 L53.0754 646.766 Z" fill="#000000" fill-rule="evenodd" fill-opacity="1" /><path clip-path="url(#clip490)" d="M102.844 632.114 Q99.2326 632.114 97.4039 635.678 Q95.5984 639.22 95.5984 646.35 Q95.5984 653.456 97.4039 657.021 Q99.2326 660.563 102.844 660.563 Q106.478 660.563 108.283 657.021 Q110.112 653.456 110.112 646.35 Q110.112 639.22 108.283 635.678 Q106.478 632.114 102.844 632.114 M102.844 628.41 Q108.654 628.41 111.709 633.016 Q114.788 637.6 114.788 646.35 Q114.788 655.077 111.709 659.683 Q108.654 664.266 102.844 664.266 Q97.0335 664.266 93.9549 659.683 Q90.8993 655.077 90.8993 646.35 Q90.8993 637.6 93.9549 633.016 Q97.0335 628.41 102.844 628.41 Z" fill="#000000" fill-rule="evenodd" fill-opacity="1" /><path clip-path="url(#clip490)" d="M123.006 657.715 L127.89 657.715 L127.89 663.595 L123.006 663.595 L123.006 657.715 Z" fill="#000000" fill-rule="evenodd" fill-opacity="1" /><path clip-path="url(#clip490)" d="M142.103 659.66 L158.422 659.66 L158.422 663.595 L136.478 663.595 L136.478 659.66 Q139.14 656.905 143.723 652.276 Q148.33 647.623 149.51 646.28 Q151.755 643.757 152.635 642.021 Q153.538 640.262 153.538 638.572 Q153.538 635.817 151.593 634.081 Q149.672 632.345 146.57 632.345 Q144.371 632.345 141.918 633.109 Q139.487 633.873 136.709 635.424 L136.709 630.702 Q139.533 629.567 141.987 628.989 Q144.441 628.41 146.478 628.41 Q151.848 628.41 155.042 631.095 Q158.237 633.78 158.237 638.271 Q158.237 640.401 157.427 642.322 Q156.64 644.22 154.533 646.813 Q153.955 647.484 150.853 650.702 Q147.751 653.896 142.103 659.66 Z" fill="#000000" fill-rule="evenodd" fill-opacity="1" /><path clip-path="url(#clip490)" d="M52.7051 331.844 L82.3808 331.844 L82.3808 335.779 L52.7051 335.779 L52.7051 331.844 Z" fill="#000000" fill-rule="evenodd" fill-opacity="1" /><path clip-path="url(#clip490)" d="M102.473 317.192 Q98.8622 317.192 97.0335 320.756 Q95.228 324.298 95.228 331.428 Q95.228 338.534 97.0335 342.099 Q98.8622 345.641 102.473 345.641 Q106.108 345.641 107.913 342.099 Q109.742 338.534 109.742 331.428 Q109.742 324.298 107.913 320.756 Q106.108 317.192 102.473 317.192 M102.473 313.488 Q108.283 313.488 111.339 318.094 Q114.418 322.678 114.418 331.428 Q114.418 340.154 111.339 344.761 Q108.283 349.344 102.473 349.344 Q96.6632 349.344 93.5845 344.761 Q90.529 340.154 90.529 331.428 Q90.529 322.678 93.5845 318.094 Q96.6632 313.488 102.473 313.488 Z" fill="#000000" fill-rule="evenodd" fill-opacity="1" /><path clip-path="url(#clip490)" d="M122.635 342.793 L127.519 342.793 L127.519 348.673 L122.635 348.673 L122.635 342.793 Z" fill="#000000" fill-rule="evenodd" fill-opacity="1" /><path clip-path="url(#clip490)" d="M138.515 344.738 L146.154 344.738 L146.154 318.372 L137.844 320.039 L137.844 315.78 L146.107 314.113 L150.783 314.113 L150.783 344.738 L158.422 344.738 L158.422 348.673 L138.515 348.673 L138.515 344.738 Z" fill="#000000" fill-rule="evenodd" fill-opacity="1" /><polyline clip-path="url(#clip492)" style="stroke:#009af9; stroke-linecap:butt; stroke-linejoin:round; stroke-width:4; stroke-opacity:1; fill:none" points="
  255.507,918.459 459.123,1078.77 662.74,1445.72 866.356,884.052 1069.97,150.928 1273.59,87.9763 1477.21,196.676 1680.82,671.457 1884.44,1043.11 2088.05,1261.47 
  2291.67,1426.97 
  "/>
<path clip-path="url(#clip490)" d="
M1988.38 198.898 L2280.81 198.898 L2280.81 95.2176 L1988.38 95.2176  Z
  " fill="#ffffff" fill-rule="evenodd" fill-opacity="1"/>
<polyline clip-path="url(#clip490)" style="stroke:#000000; stroke-linecap:butt; stroke-linejoin:round; stroke-width:4; stroke-opacity:1; fill:none" points="
  1988.38,198.898 2280.81,198.898 2280.81,95.2176 1988.38,95.2176 1988.38,198.898 
  "/>
<polyline clip-path="url(#clip490)" style="stroke:#009af9; stroke-linecap:butt; stroke-linejoin:round; stroke-width:4; stroke-opacity:1; fill:none" points="
  2012.38,147.058 2156.38,147.058 
  "/>
<path clip-path="url(#clip490)" d="M2194.22 166.745 Q2192.42 171.375 2190.71 172.787 Q2188.99 174.199 2186.12 174.199 L2182.72 174.199 L2182.72 170.634 L2185.22 170.634 Q2186.98 170.634 2187.95 169.8 Q2188.92 168.967 2190.1 165.865 L2190.87 163.921 L2180.38 138.412 L2184.9 138.412 L2193 158.689 L2201.1 138.412 L2205.61 138.412 L2194.22 166.745 Z" fill="#000000" fill-rule="evenodd" fill-opacity="1" /><path clip-path="url(#clip490)" d="M2212.9 160.402 L2220.54 160.402 L2220.54 134.037 L2212.23 135.703 L2212.23 131.444 L2220.5 129.778 L2225.17 129.778 L2225.17 160.402 L2232.81 160.402 L2232.81 164.338 L2212.9 164.338 L2212.9 160.402 Z" fill="#000000" fill-rule="evenodd" fill-opacity="1" /></svg>
